<svg width="20" height="20" viewBox="0 0 20 20" fill="none" xmlns="http://www.w3.org/2000/svg">
<g clip-path="url(#clip0_174_551)">
<path d="M0 10C0 4.4775 4.4775 0 10 0C15.5225 0 20 4.4775 20 10C20 15.5225 15.5225 20 10 20C4.4775 20 0 15.5225 0 10Z" fill="black"/>
<path d="M0 10C0 4.4775 4.4775 0 10 0C15.5225 0 20 4.4775 20 10C20 15.5225 15.5225 20 10 20C4.4775 20 0 15.5225 0 10Z" fill="black"/>
<path fill-rule="evenodd" clip-rule="evenodd" d="M9.7 0C9.65 4.05417 9.37333 6.3325 7.8525 7.8525C6.33333 9.37333 4.05417 9.65 0 9.7V10.3C4.05417 10.35 6.3325 10.6267 7.8525 12.1475C9.37333 13.6667 9.65 15.9458 9.7 20H10.3C10.35 15.9458 10.6267 13.6675 12.1475 12.1475C13.6667 10.6267 15.9458 10.35 20 10.3V9.7C15.9458 9.65 13.6675 9.37333 12.1475 7.8525C10.6267 6.33333 10.35 4.05417 10.3 0H9.7Z" fill="white"/>
</g>
<defs>
<clipPath id="clip0_174_551">
<rect width="20" height="20" fill="white"/>
</clipPath>
</defs>
</svg>
