<svg width="46" height="46" viewBox="0 0 46 46" fill="none" xmlns="http://www.w3.org/2000/svg">
<path d="M23.0243 45.9875C35.6157 45.9875 45.8231 35.7802 45.8231 23.1888C45.8231 10.5974 35.6157 0.390015 23.0243 0.390015C10.4329 0.390015 0.225586 10.5974 0.225586 23.1888C0.225586 35.7802 10.4329 45.9875 23.0243 45.9875Z" fill="#F0F0F0"/>
<path d="M45.8231 23.1887C45.8231 14.1499 40.5629 6.33992 32.9368 2.65222V43.7252C40.5629 40.0375 45.8231 32.2275 45.8231 23.1887Z" fill="#D80027"/>
<path d="M0.225594 23.1887C0.225594 32.2275 5.48578 40.0375 13.1119 43.7252V2.65222C5.48578 6.33992 0.225594 14.1499 0.225594 23.1887Z" fill="#D80027"/>
<path d="M26.9894 26.1625L30.9543 24.18L28.9719 23.1887V21.2062L25.0069 23.1887L26.9894 19.2237H25.0069L23.0243 16.25L21.0418 19.2237H19.0593L21.0418 23.1887L17.0768 21.2062V23.1887L15.0944 24.18L19.0593 26.1625L18.0681 28.145H22.0331V31.1187H24.0156V28.145H27.9806L26.9894 26.1625Z" fill="#D80027"/>
</svg>
