<svg width="81" height="81" viewBox="0 0 81 81" fill="none" xmlns="http://www.w3.org/2000/svg">
<rect x="0.701447" y="0.737549" width="80" height="80" rx="20" fill="#F4A900"/>
<path d="M41.0037 53.6909V54.956V56.2211" stroke="white" stroke-width="1.53347" stroke-linecap="round"/>
<path d="M41.0037 25.8586V27.1238V28.3889" stroke="white" stroke-width="1.53347" stroke-linecap="round"/>
<path d="M48.5943 34.7142C48.5943 31.2207 45.196 28.3887 41.0037 28.3887C36.8114 28.3887 33.413 31.2207 33.413 34.7142C33.413 38.2077 36.8114 41.0398 41.0037 41.0398C45.196 41.0398 48.5943 43.8719 48.5943 47.3653C48.5943 50.8588 45.196 53.6909 41.0037 53.6909C36.8114 53.6909 33.413 50.8588 33.413 47.3653" stroke="white" stroke-width="1.53347" stroke-linecap="round"/>
<path d="M28.3526 19.1225C32.0742 16.9697 36.3951 15.7375 41.0037 15.7375C54.9776 15.7375 66.3059 27.0657 66.3059 41.0398C66.3059 55.0137 54.9776 66.342 41.0037 66.342C27.0296 66.342 15.7014 55.0137 15.7014 41.0398C15.7014 36.4312 16.9336 32.1103 19.0864 28.3887" stroke="white" stroke-width="1.53347" stroke-linecap="round"/>
</svg>
