<svg width="46" height="47" viewBox="0 0 46 47" fill="none" xmlns="http://www.w3.org/2000/svg">
<g clip-path="url(#clip0_0_2295)">
<path d="M1.64373 31.4497C4.86521 40.1319 13.2225 46.3193 23.0256 46.3193C32.8287 46.3193 41.186 40.1319 44.4074 31.4497L23.0256 29.4672L1.64373 31.4497Z" fill="#FFDA44"/>
<path d="M23.0256 0.71936C13.2225 0.71936 4.86521 6.90671 1.64373 15.589L23.0256 17.5715L44.4074 15.589C41.186 6.90671 32.8287 0.71936 23.0256 0.71936Z" fill="black"/>
<path d="M1.64375 15.5887C0.727298 18.0596 0.225609 20.7302 0.225609 23.5191C0.225609 26.308 0.727298 28.9787 1.64375 31.4495H44.4076C45.324 28.9787 45.8256 26.308 45.8256 23.5191C45.8256 20.7302 45.324 18.0596 44.4075 15.5887H1.64375Z" fill="#D80027"/>
</g>
<defs>
<clipPath id="clip0_0_2295">
<rect width="45.6" height="45.6" fill="white" transform="translate(0.225586 0.71936)"/>
</clipPath>
</defs>
</svg>
