<svg width="40" height="40" viewBox="0 0 40 40" fill="none" xmlns="http://www.w3.org/2000/svg">
<rect width="40" height="40" rx="5" fill="#0A9E5C"/>
<path d="M23.592 22.6138C24.5827 24.184 25.0781 24.9691 24.7406 25.6113C24.4031 26.2534 23.4563 26.3273 21.5626 26.4752L21.0726 26.5134C20.5345 26.5554 20.2654 26.5765 20.0302 26.7C19.7949 26.8237 19.6201 27.036 19.2706 27.4604L18.9525 27.8469C17.7225 29.3409 17.1075 30.0879 16.406 29.9919C15.7045 29.8957 15.381 29.0203 14.7342 27.2693L14.5668 26.8164C14.383 26.3189 14.2911 26.07 14.1105 25.8895C13.9299 25.709 13.6812 25.6171 13.1836 25.4332L12.7307 25.2659C10.9797 24.619 10.1043 24.2956 10.0082 23.5941C9.91211 22.8925 10.6592 22.2775 12.153 21.0476M13.5248 18.4375C13.6727 16.5437 13.7466 15.5969 14.3888 15.2594C15.0309 14.9219 15.816 15.4173 17.3862 16.408L17.7924 16.6643C18.2386 16.9459 18.4617 17.0866 18.7187 17.1218C18.9756 17.157 19.2374 17.0826 19.761 16.9339L20.2375 16.7984C22.0798 16.2749 23.001 16.0132 23.4939 16.5061C23.9868 16.999 23.7251 17.9202 23.2016 19.7625" stroke="white" stroke-width="2" stroke-linecap="round"/>
<path d="M18.1458 14.2069L18.6717 13.6811M22.3528 10L20.2493 12.1035" stroke="white" stroke-width="2" stroke-linecap="round"/>
<path d="M25.508 14.207L28.1373 11.5776" stroke="white" stroke-width="2" stroke-linecap="round"/>
<path d="M26.0339 19.9916L27.6115 18.414M30.2408 15.7847L29.715 16.3105" stroke="white" stroke-width="2" stroke-linecap="round"/>
</svg>
