<svg width="41" height="39" viewBox="0 0 41 39" fill="none" xmlns="http://www.w3.org/2000/svg">
    <path d="M9.60109 16.3298C10.329 9.88594 13.2269 4.7575 18.497 1.07334C20.5496 -0.362347 21.1126 -0.358051 23.166 1.08795C28.4276 4.79445 31.2808 9.94608 31.974 16.4303C35.5787 19.0371 38.3168 22.3999 39.6399 26.7379C40.2561 28.7578 40.4362 30.9221 40.738 33.0322C40.9477 34.4954 40.2172 35.4482 38.9433 36.0978C33.3477 38.9537 27.6558 39.2329 21.8455 36.8427C21.5065 36.7035 21.165 36.5703 21.1151 36.5506C18.6001 37.1511 16.381 37.8282 14.1137 38.1916C9.78285 38.8841 5.75716 37.7792 1.97579 35.6355C0.914846 35.0341 0.678986 34.0392 0.713647 32.8913C0.894557 26.8229 3.27007 21.8165 7.74211 17.8213C8.29583 17.3264 8.90027 16.8908 9.60278 16.3315L9.60109 16.3298ZM15.0766 13.6337C18.9577 12.7882 22.838 12.6121 26.873 13.8974C25.7486 10.1162 23.8144 7.29466 20.8243 5.13038C17.9179 7.30754 15.7952 9.93062 14.943 13.4893C14.9092 13.5856 14.8762 13.6818 14.7993 13.8992C14.9633 13.7419 15.02 13.6878 15.0766 13.6337ZM27.3743 19.1496C22.9462 17.1726 18.6263 17.0833 14.2236 19.1281C14.6632 24.156 16.8493 27.9553 20.7246 30.91C24.6944 27.9691 26.818 24.15 27.3751 19.1487L27.3743 19.1496ZM31.6358 22.2263C30.5343 26.5076 28.5933 30.1084 25.3699 33.1645C29.1749 34.0409 32.6046 33.9129 36.0707 32.2804C35.8652 28.4064 34.363 25.1793 31.6358 22.2263ZM9.93501 22.1112C7.13175 25.1089 5.60077 28.3085 5.40464 32.167C8.8225 33.8278 12.226 33.949 16.0538 33.1405C12.9293 29.9942 10.9334 26.4887 9.93501 22.1112Z" fill="url(#paint0_linear_1149_31)"/>
    <defs>
    <linearGradient id="paint0_linear_1149_31" x1="50.7574" y1="34.5724" x2="50.4127" y2="-17.7053" gradientUnits="userSpaceOnUse">
    <stop stop-color="#352CAE"/>
    <stop offset="1" stop-color="#876BCC"/>
    </linearGradient>
    </defs>
    </svg>
    