<svg width="81" height="81" viewBox="0 0 81 81" fill="none" xmlns="http://www.w3.org/2000/svg">
<rect x="0.895782" y="0.296631" width="80" height="80" rx="20" fill="#0A9E5C"/>
<path d="M66.5002 40.5989C66.5002 43.9216 65.8457 47.2119 64.5742 50.2815C63.3025 53.3514 61.439 56.1408 59.0895 58.4903C56.7399 60.8399 53.9506 62.7034 50.8807 63.9751C47.811 65.2465 44.5207 65.9011 41.198 65.9011C37.8753 65.9011 34.5851 65.2465 31.5153 63.9751C28.4455 62.7034 25.6562 60.8399 23.3066 58.4903C20.9571 56.1408 19.0934 53.3514 17.8218 50.2815C16.5502 47.2119 15.8958 43.9216 15.8958 40.5989C15.8958 37.2762 16.5502 33.9859 17.8218 30.9161C19.0934 27.8463 20.9571 25.057 23.3066 22.7075C25.6562 20.358 28.4455 18.4942 31.5153 17.2226C34.5851 15.9511 37.8753 15.2966 41.198 15.2966C44.5207 15.2966 47.811 15.9511 50.8807 17.2227C53.9506 18.4942 56.7399 20.358 59.0895 22.7075C61.439 25.057 63.3025 27.8463 64.5742 30.9161C65.8457 33.9859 66.5002 37.2762 66.5002 40.5989Z" stroke="white" stroke-width="1.53347"/>
<path d="M15.8958 40.5989H66.5002M51.3189 40.5989C51.3189 43.9216 51.057 47.2119 50.5485 50.2815C50.0399 53.3514 49.2945 56.1408 48.3545 58.4903C47.4148 60.8399 46.2989 62.7034 45.071 63.9751C43.8431 65.2465 42.5271 65.9011 41.198 65.9011C39.8689 65.9011 38.5529 65.2465 37.325 63.9751C36.097 62.7034 34.9813 60.8399 34.0415 58.4903C33.1017 56.1408 32.3561 53.3514 31.8475 50.2815C31.3389 47.2119 31.0771 43.9216 31.0771 40.5989C31.0771 37.2762 31.3389 33.9859 31.8475 30.9161C32.3561 27.8463 33.1017 25.057 34.0415 22.7075C34.9813 20.358 36.097 18.4942 37.325 17.2226C38.5529 15.9511 39.8689 15.2966 41.198 15.2966C42.5271 15.2966 43.8431 15.9511 45.071 17.2227C46.2989 18.4942 47.4148 20.358 48.3545 22.7075C49.2945 25.057 50.0399 27.8463 50.5485 30.9161C51.057 33.9859 51.3189 37.2762 51.3189 40.5989Z" stroke="white" stroke-width="1.53347" stroke-linecap="round"/>
</svg>
