<svg width="40" height="40" viewBox="0 0 40 40" fill="none" xmlns="http://www.w3.org/2000/svg">
<rect width="40" height="40" rx="5" fill="#0A9E5C"/>
<path d="M30.3533 25.8823C30.3533 28.1565 28.5098 30 26.2356 30C23.9615 30 22.1179 28.1565 22.1179 25.8823C22.1179 23.6082 23.9615 21.7646 26.2356 21.7646C28.5098 21.7646 30.3533 23.6082 30.3533 25.8823Z" stroke="white" stroke-width="2"/>
<path d="M8 18.2354H22.1178M31.5297 18.2354H26.8237" stroke="white" stroke-width="2" stroke-linecap="round"/>
<path d="M10.353 18.2352L11.0752 15.3466C11.7171 12.7788 12.0381 11.4948 12.9955 10.7473C13.8892 10.0495 15.1018 10.0031 17.4119 10M29.1768 18.2352L28.4546 15.3466C27.8126 12.7788 27.4917 11.4948 26.5343 10.7473C25.6406 10.0495 24.428 10.0031 22.1179 10" stroke="white" stroke-width="2" stroke-linecap="round"/>
<path d="M17.4119 25.8823C17.4119 28.1565 15.5684 30 13.2942 30C11.0201 30 9.17651 28.1565 9.17651 25.8823C9.17651 23.6082 11.0201 21.7646 13.2942 21.7646C15.5684 21.7646 17.4119 23.6082 17.4119 25.8823Z" stroke="white" stroke-width="2"/>
<path d="M17.4119 25.8825L18.1865 25.4952C19.18 24.9984 20.3497 24.9984 21.3432 25.4952L22.1178 25.8825" stroke="white" stroke-width="2" stroke-linecap="round"/>
</svg>
