<svg width="81" height="81" viewBox="0 0 81 81" fill="none" xmlns="http://www.w3.org/2000/svg">
<rect x="0.895782" y="0.737549" width="80" height="80" rx="20" fill="#038FF7"/>
<path d="M39.4464 65.7966H24.4596C20.4226 65.7966 18.4041 65.7966 17.15 64.5424C15.8958 63.2883 15.8958 61.2698 15.8958 57.2328C15.8958 53.1958 15.8958 51.1773 17.15 49.9231C18.4041 48.6689 20.4226 48.6689 24.4596 48.6689H50.1511C54.1881 48.6689 56.2066 48.6689 57.4608 49.9231C58.715 51.1773 58.715 53.1958 58.715 57.2328C58.715 61.2698 58.715 63.2883 57.4608 64.5424C56.2066 65.7966 54.1881 65.7966 50.1511 65.7966H48.0102" stroke="white" stroke-width="0.847463" stroke-linecap="round"/>
<path d="M35.1644 25.1179H50.1511C54.1881 25.1179 56.2066 25.1179 57.4608 26.3721C58.715 27.6262 58.715 29.6447 58.715 33.6818C58.715 37.7188 58.715 39.7373 57.4608 40.9914C56.2066 42.2456 54.1881 42.2456 50.1511 42.2456H24.4596C20.4226 42.2456 18.4041 42.2456 17.15 40.9914C15.8958 39.7373 15.8958 37.7188 15.8958 33.6818C15.8958 29.6447 15.8958 27.6262 17.15 26.3721C18.4041 25.1179 20.4226 25.1179 24.4596 25.1179H26.6006" stroke="white" stroke-width="0.847463" stroke-linecap="round"/>
<path d="M35.1644 33.6821H50.1511" stroke="white" stroke-width="0.847463" stroke-linecap="round"/>
<path d="M24.4596 33.6821H28.7415" stroke="white" stroke-width="0.847463" stroke-linecap="round"/>
<path d="M35.1644 57.2324H50.1511" stroke="white" stroke-width="0.847463" stroke-linecap="round"/>
<path d="M24.4596 57.2324H28.7415" stroke="white" stroke-width="0.847463" stroke-linecap="round"/>
<path d="M51.8293 21.8714C52.2195 22.1165 52.4705 22.5342 52.4705 22.995C52.4705 23.4558 52.2195 23.8735 51.8293 24.1186C51.5637 24.2854 51.3927 24.4188 51.2709 24.5774C51.0043 24.925 50.8866 25.3641 50.9438 25.7984C50.9867 26.1241 51.179 26.4572 51.5638 27.1237C51.9485 27.7901 52.1409 28.1233 52.4015 28.3233C52.749 28.5899 53.1882 28.7076 53.6225 28.6504C53.8207 28.6243 54.0217 28.5428 54.2989 28.3964C54.7064 28.181 55.1937 28.1724 55.5928 28.4029C55.9919 28.6333 56.2281 29.0596 56.2453 29.5201C56.257 29.8335 56.287 30.0484 56.3635 30.2331C56.5311 30.6377 56.8526 30.9592 57.2572 31.1269C57.5608 31.2525 57.9455 31.2525 58.715 31.2525C59.4845 31.2525 59.8692 31.2525 60.1728 31.1269C60.5774 30.9592 60.8989 30.6377 61.0666 30.2331C61.143 30.0484 61.173 29.8335 61.1847 29.5202C61.2019 29.0596 61.4381 28.6333 61.8372 28.4029C62.2363 28.1725 62.7236 28.1811 63.131 28.3964C63.4083 28.5429 63.6093 28.6244 63.8075 28.6505C64.2418 28.7077 64.681 28.59 65.0284 28.3234C65.289 28.1234 65.4814 27.7902 65.8662 27.1238C66.0375 26.8271 66.1707 26.5965 66.2695 26.4031M65.6007 24.1187C65.2105 23.8736 64.9595 23.4559 64.9594 22.9951C64.9594 22.5343 65.2105 22.1165 65.6007 21.8714C65.8662 21.7046 66.0373 21.5712 66.159 21.4126C66.4256 21.0651 66.5433 20.6259 66.4861 20.1916C66.4433 19.8659 66.2509 19.5327 65.8661 18.8663C65.4814 18.1999 65.289 17.8667 65.0284 17.6667C64.6809 17.4001 64.2417 17.2824 63.8074 17.3396C63.6092 17.3657 63.4082 17.4472 63.131 17.5937C62.7235 17.809 62.2363 17.8176 61.8372 17.5872C61.4381 17.3567 61.2019 16.9305 61.1847 16.47C61.173 16.1566 61.143 15.9418 61.0666 15.757C60.8989 15.3524 60.5774 15.0309 60.1728 14.8633C59.8692 14.7375 59.4845 14.7375 58.715 14.7375C57.9455 14.7375 57.5608 14.7375 57.2572 14.8633C56.8526 15.0309 56.5311 15.3524 56.3635 15.757C56.287 15.9418 56.257 16.1566 56.2453 16.4699C56.2281 16.9305 55.9919 17.3568 55.5928 17.5872C55.1937 17.8176 54.7064 17.809 54.2989 17.5937C54.0217 17.4471 53.8207 17.3657 53.6225 17.3396C53.1882 17.2824 52.749 17.4001 52.4015 17.6667C52.1409 17.8667 51.9486 18.1999 51.5638 18.8663C51.3925 19.163 51.2594 19.3936 51.1605 19.587" stroke="white" stroke-width="0.843408" stroke-linecap="round"/>
<path d="M58.7151 25.4723C60.0833 25.4723 61.1924 24.3632 61.1924 22.9951C61.1924 21.6269 60.0833 20.5178 58.7151 20.5178C57.347 20.5178 56.2379 21.6269 56.2379 22.9951C56.2379 24.3632 57.347 25.4723 58.7151 25.4723Z" stroke="white" stroke-width="0.843408"/>
</svg>
