<svg width="16" height="19" viewBox="0 0 16 19" fill="none" xmlns="http://www.w3.org/2000/svg">
<path d="M14.8733 7.96401C14.8733 13.3725 7.91947 18.0084 7.91947 18.0084C7.91947 18.0084 0.965652 13.3725 0.965652 7.96401C0.965652 6.11975 1.69828 4.35101 3.00238 3.04692C4.30647 1.74283 6.0752 1.01019 7.91947 1.01019C9.76374 1.01019 11.5325 1.74283 12.8366 3.04692C14.1407 4.35101 14.8733 6.11975 14.8733 7.96401Z" stroke="#00B67A" stroke-width="1.54529" stroke-linecap="round" stroke-linejoin="round"/>
<path d="M7.91949 10.282C9.19965 10.282 10.2374 9.24422 10.2374 7.96406C10.2374 6.6839 9.19965 5.64612 7.91949 5.64612C6.63932 5.64612 5.60155 6.6839 5.60155 7.96406C5.60155 9.24422 6.63932 10.282 7.91949 10.282Z" stroke="#00B67A" stroke-width="1.54529" stroke-linecap="round" stroke-linejoin="round"/>
</svg>
