<svg width="166" height="51" viewBox="0 0 166 51" fill="none" xmlns="http://www.w3.org/2000/svg">
    <path d="M59.6084 34V16.5455H66.1538C67.4947 16.5455 68.6197 16.7955 69.5288 17.2955C70.4436 17.7955 71.1339 18.483 71.5998 19.358C72.0714 20.2273 72.3072 21.2159 72.3072 22.3239C72.3072 23.4432 72.0714 24.4375 71.5998 25.3068C71.1283 26.1761 70.4322 26.8608 69.5118 27.3608C68.5913 27.8551 67.4578 28.1023 66.1112 28.1023H61.7731V25.5028H65.6851C66.4692 25.5028 67.1112 25.3665 67.6112 25.0938C68.1112 24.821 68.4805 24.446 68.7192 23.9688C68.9635 23.4915 69.0856 22.9432 69.0856 22.3239C69.0856 21.7045 68.9635 21.1591 68.7192 20.6875C68.4805 20.2159 68.1084 19.8494 67.6027 19.5881C67.1027 19.321 66.4578 19.1875 65.668 19.1875H62.7703V34H59.6084ZM74.9173 34V20.9091H77.9088V23.0909H78.0452C78.2838 22.3352 78.6929 21.7528 79.2724 21.3438C79.8577 20.929 80.5253 20.7216 81.2753 20.7216C81.4457 20.7216 81.6361 20.7301 81.8463 20.7472C82.0622 20.7585 82.2412 20.7784 82.3832 20.8068V23.6449C82.2525 23.5994 82.0452 23.5597 81.7611 23.5256C81.4827 23.4858 81.2128 23.4659 80.9514 23.4659C80.3889 23.4659 79.8832 23.5881 79.4344 23.8324C78.9912 24.071 78.6418 24.4034 78.3861 24.8295C78.1304 25.2557 78.0025 25.7472 78.0025 26.304V34H74.9173ZM84.4329 34V20.9091H87.5182V34H84.4329ZM85.9841 19.0511C85.4954 19.0511 85.075 18.8892 84.7227 18.5653C84.3704 18.2358 84.1943 17.8409 84.1943 17.3807C84.1943 16.9148 84.3704 16.5199 84.7227 16.196C85.075 15.8665 85.4954 15.7017 85.9841 15.7017C86.4784 15.7017 86.8989 15.8665 87.2454 16.196C87.5977 16.5199 87.7739 16.9148 87.7739 17.3807C87.7739 17.8409 87.5977 18.2358 87.2454 18.5653C86.8989 18.8892 86.4784 19.0511 85.9841 19.0511ZM90.6908 34V20.9091H93.6396V23.1335H93.793C94.0658 22.3835 94.5175 21.7983 95.1481 21.3778C95.7788 20.9517 96.5317 20.7386 97.4067 20.7386C98.293 20.7386 99.0402 20.9545 99.6481 21.3864C100.262 21.8125 100.694 22.3949 100.944 23.1335H101.08C101.37 22.4062 101.858 21.8267 102.546 21.3949C103.239 20.9574 104.06 20.7386 105.009 20.7386C106.213 20.7386 107.196 21.1193 107.958 21.8807C108.719 22.642 109.1 23.7528 109.1 25.2131V34H106.006V25.6903C106.006 24.8778 105.79 24.2841 105.358 23.9091C104.927 23.5284 104.398 23.3381 103.773 23.3381C103.029 23.3381 102.446 23.571 102.026 24.0369C101.611 24.4972 101.404 25.0966 101.404 25.8352V34H98.3783V25.5625C98.3783 24.8864 98.1737 24.3466 97.7646 23.9432C97.3612 23.5398 96.8328 23.3381 96.1794 23.3381C95.7362 23.3381 95.3328 23.4517 94.9692 23.679C94.6055 23.9006 94.3158 24.2159 94.0998 24.625C93.8839 25.0284 93.776 25.5 93.776 26.0398V34H90.6908ZM118.025 34.2557C116.713 34.2557 115.579 33.983 114.625 33.4375C113.676 32.8864 112.946 32.108 112.434 31.1023C111.923 30.0909 111.667 28.9006 111.667 27.5312C111.667 26.1847 111.923 25.0028 112.434 23.9858C112.951 22.9631 113.673 22.1676 114.599 21.5994C115.525 21.0256 116.613 20.7386 117.863 20.7386C118.67 20.7386 119.432 20.8693 120.147 21.1307C120.869 21.3864 121.505 21.7841 122.057 22.3239C122.613 22.8636 123.051 23.5511 123.369 24.3864C123.687 25.2159 123.846 26.2045 123.846 27.3523V28.2983H113.116V26.2188H120.889C120.883 25.6278 120.755 25.1023 120.505 24.642C120.255 24.1761 119.906 23.8097 119.457 23.5426C119.014 23.2756 118.497 23.142 117.906 23.142C117.275 23.142 116.721 23.2955 116.244 23.6023C115.767 23.9034 115.395 24.3011 115.128 24.7955C114.866 25.2841 114.733 25.821 114.727 26.4062V28.2216C114.727 28.983 114.866 29.6364 115.145 30.1818C115.423 30.7216 115.812 31.1364 116.312 31.4261C116.812 31.7102 117.397 31.8523 118.068 31.8523C118.517 31.8523 118.923 31.7898 119.287 31.6648C119.65 31.5341 119.966 31.3438 120.233 31.0938C120.5 30.8438 120.701 30.5341 120.838 30.1648L123.718 30.4886C123.537 31.25 123.19 31.9148 122.679 32.483C122.173 33.0455 121.525 33.483 120.736 33.7955C119.946 34.1023 119.042 34.2557 118.025 34.2557ZM136.803 24.3693L133.99 24.6761C133.911 24.392 133.772 24.125 133.573 23.875C133.38 23.625 133.118 23.4233 132.789 23.2699C132.459 23.1165 132.056 23.0398 131.579 23.0398C130.936 23.0398 130.397 23.179 129.959 23.4574C129.527 23.7358 129.314 24.0966 129.32 24.5398C129.314 24.9205 129.454 25.2301 129.738 25.4688C130.027 25.7074 130.505 25.9034 131.169 26.0568L133.402 26.5341C134.641 26.8011 135.561 27.2244 136.164 27.804C136.772 28.3835 137.079 29.142 137.084 30.0795C137.079 30.9034 136.837 31.6307 136.36 32.2614C135.888 32.8864 135.232 33.375 134.391 33.7273C133.55 34.0795 132.584 34.2557 131.493 34.2557C129.891 34.2557 128.601 33.9205 127.624 33.25C126.647 32.5739 126.064 31.6335 125.877 30.429L128.885 30.1392C129.022 30.7301 129.311 31.1761 129.755 31.4773C130.198 31.7784 130.775 31.929 131.485 31.929C132.218 31.929 132.806 31.7784 133.249 31.4773C133.698 31.1761 133.922 30.804 133.922 30.3608C133.922 29.9858 133.777 29.6761 133.488 29.4318C133.204 29.1875 132.76 29 132.158 28.8693L129.925 28.4006C128.669 28.1392 127.74 27.6989 127.138 27.0795C126.536 26.4545 126.238 25.6648 126.243 24.7102C126.238 23.9034 126.456 23.2045 126.9 22.6136C127.348 22.017 127.971 21.5568 128.766 21.233C129.567 20.9034 130.49 20.7386 131.536 20.7386C133.07 20.7386 134.277 21.0653 135.158 21.7188C136.044 22.3722 136.593 23.2557 136.803 24.3693ZM145.338 34.2557C144.06 34.2557 142.952 33.9744 142.015 33.4119C141.077 32.8494 140.35 32.0625 139.833 31.0511C139.321 30.0398 139.066 28.858 139.066 27.5057C139.066 26.1534 139.321 24.9687 139.833 23.9517C140.35 22.9347 141.077 22.1449 142.015 21.5824C142.952 21.0199 144.06 20.7386 145.338 20.7386C146.617 20.7386 147.725 21.0199 148.662 21.5824C149.6 22.1449 150.324 22.9347 150.836 23.9517C151.353 24.9687 151.611 26.1534 151.611 27.5057C151.611 28.858 151.353 30.0398 150.836 31.0511C150.324 32.0625 149.6 32.8494 148.662 33.4119C147.725 33.9744 146.617 34.2557 145.338 34.2557ZM145.356 31.7841C146.049 31.7841 146.628 31.5937 147.094 31.2131C147.56 30.8267 147.907 30.3097 148.134 29.6619C148.367 29.0142 148.483 28.2926 148.483 27.4972C148.483 26.696 148.367 25.9716 148.134 25.3239C147.907 24.6705 147.56 24.1506 147.094 23.7642C146.628 23.3778 146.049 23.1847 145.356 23.1847C144.645 23.1847 144.054 23.3778 143.583 23.7642C143.117 24.1506 142.767 24.6705 142.535 25.3239C142.307 25.9716 142.194 26.696 142.194 27.4972C142.194 28.2926 142.307 29.0142 142.535 29.6619C142.767 30.3097 143.117 30.8267 143.583 31.2131C144.054 31.5937 144.645 31.7841 145.356 31.7841ZM156.26 20.9091L158.902 25.7415L161.587 20.9091H164.851L160.905 27.4545L164.919 34H161.672L158.902 29.2869L156.158 34H152.885L156.874 27.4545L152.988 20.9091H156.26Z" fill="url(#paint0_linear_1316_6)"/>
    <path d="M12.6011 16.3298C13.329 9.88594 16.2269 4.7575 21.497 1.07334C23.5496 -0.362347 24.1126 -0.358051 26.166 1.08795C31.4276 4.79445 34.2808 9.94608 34.974 16.4303C38.5787 19.0371 41.3168 22.3999 42.6399 26.7379C43.2561 28.7578 43.4362 30.9221 43.738 33.0322C43.9477 34.4954 43.2172 35.4482 41.9433 36.0978C36.3477 38.9537 30.6558 39.2329 24.8455 36.8427C24.5065 36.7035 24.165 36.5703 24.1151 36.5506C21.6001 37.1511 19.381 37.8282 17.1137 38.1916C12.7828 38.8841 8.75716 37.7792 4.97579 35.6355C3.91485 35.0341 3.67899 34.0392 3.71365 32.8913C3.89456 26.8229 6.27007 21.8165 10.7421 17.8213C11.2958 17.3264 11.9003 16.8908 12.6028 16.3315L12.6011 16.3298ZM18.0766 13.6337C21.9577 12.7882 25.838 12.6121 29.873 13.8974C28.7486 10.1162 26.8144 7.29466 23.8243 5.13038C20.9179 7.30754 18.7952 9.93062 17.943 13.4893C17.9092 13.5856 17.8762 13.6818 17.7993 13.8992C17.9633 13.7419 18.02 13.6878 18.0766 13.6337ZM30.3743 19.1496C25.9462 17.1726 21.6263 17.0833 17.2236 19.1281C17.6632 24.156 19.8493 27.9553 23.7246 30.91C27.6944 27.9691 29.818 24.15 30.3751 19.1487L30.3743 19.1496ZM34.6358 22.2263C33.5343 26.5076 31.5933 30.1084 28.3699 33.1645C32.1749 34.0409 35.6046 33.9129 39.0707 32.2804C38.8652 28.4064 37.363 25.1793 34.6358 22.2263ZM12.935 22.1112C10.1317 25.1089 8.60077 28.3085 8.40464 32.167C11.8225 33.8278 15.226 33.949 19.0538 33.1405C15.9293 29.9942 13.9334 26.4887 12.935 22.1112Z" fill="url(#paint1_linear_1316_6)"/>
    <path d="M5.42047 6.85742C8.32012 6.88921 10.7413 9.37997 10.7261 12.3166C10.7108 15.2301 8.2398 17.7398 5.37313 17.7535C2.42784 17.7673 -0.0499574 15.2018 0.000765221 12.1903C0.0506424 9.24938 2.51322 6.82649 5.42047 6.85828V6.85742Z" fill="#038FF7"/>
    <path d="M23.7271 50.0473C20.7429 50.055 18.3716 47.712 18.3463 44.7315C18.3201 41.7003 20.7911 39.1443 23.7263 39.1632C26.554 39.1821 29.0707 41.7528 29.0893 44.6439C29.1079 47.5462 26.6335 50.0395 23.7271 50.0473Z" fill="#4B57C1"/>
    <path d="M37.0012 12.2933C37.0392 9.26381 39.4528 6.86326 42.377 6.94746C45.2698 7.02994 47.5853 9.54132 47.5447 12.5527C47.5033 15.6097 45.1861 17.8685 42.1352 17.8255C39.1518 17.7834 36.9615 15.4233 37.0012 12.2933Z" fill="#AA70E6"/>
    <defs>
    <linearGradient id="paint0_linear_1316_6" x1="192.8" y1="33.8791" x2="192.762" y2="5.33038" gradientUnits="userSpaceOnUse">
    <stop stop-color="#352CAE"/>
    <stop offset="1" stop-color="#876BCC"/>
    </linearGradient>
    <linearGradient id="paint1_linear_1316_6" x1="53.7574" y1="34.5724" x2="53.4127" y2="-17.7053" gradientUnits="userSpaceOnUse">
    <stop stop-color="#352CAE"/>
    <stop offset="1" stop-color="#876BCC"/>
    </linearGradient>
    </defs>
    </svg>
    