<svg width="81" height="81" viewBox="0 0 81 81" fill="none" xmlns="http://www.w3.org/2000/svg">
<rect x="0.701447" y="0.296631" width="80" height="80" rx="20" fill="#038FF7"/>
<path d="M43.5339 64.3712H25.8223C21.0513 64.3712 18.6658 64.3712 17.1836 62.889C15.7014 61.4068 15.7014 59.0213 15.7014 54.2503C15.7014 49.4793 15.7014 47.0938 17.1836 45.6116C18.6658 44.1294 21.0513 44.1294 25.8223 44.1294H56.185C60.956 44.1294 63.3415 44.1294 64.8237 45.6116C66.3059 47.0938 66.3059 49.4793 66.3059 54.2503C66.3059 59.0213 66.3059 61.4068 64.8237 62.889C63.3415 64.3712 60.956 64.3712 56.185 64.3712H53.6548" stroke="white" stroke-width="1.00155" stroke-linecap="round"/>
<path d="M38.4735 16.2966H56.185C60.956 16.2966 63.3415 16.2966 64.8237 17.7788C66.3059 19.261 66.3059 21.6465 66.3059 26.4175C66.3059 31.1886 66.3059 33.5741 64.8237 35.0562C63.3415 36.5384 60.956 36.5384 56.185 36.5384H25.8223C21.0513 36.5384 18.6658 36.5384 17.1836 35.0562C15.7014 33.5741 15.7014 31.1886 15.7014 26.4175C15.7014 21.6465 15.7014 19.261 17.1836 17.7788C18.6658 16.2966 21.0513 16.2966 25.8223 16.2966H28.3526" stroke="white" stroke-width="1.00155" stroke-linecap="round"/>
<path d="M38.4735 26.4177H56.185" stroke="white" stroke-width="1.00155" stroke-linecap="round"/>
<path d="M25.8223 26.4177H30.8828" stroke="white" stroke-width="1.00155" stroke-linecap="round"/>
<path d="M38.4735 54.2502H56.185" stroke="white" stroke-width="1.00155" stroke-linecap="round"/>
<path d="M25.8223 54.2502H30.8828" stroke="white" stroke-width="1.00155" stroke-linecap="round"/>
</svg>
