<svg width="40" height="40" viewBox="0 0 40 40" fill="none" xmlns="http://www.w3.org/2000/svg">
<rect width="40" height="40" rx="5" fill="#AA70E6"/>
<path d="M14.4913 21.3183C14.7639 21.046 14.7642 20.6042 14.4919 20.3316C14.2196 20.0589 13.7779 20.0587 13.5052 20.331L14.4913 21.3183ZM11.63 21.3183C11.9027 21.046 11.9029 20.6042 11.6306 20.3316C11.3583 20.0589 10.9166 20.0587 10.644 20.331L11.63 21.3183ZM19.6331 26.4992C19.9057 26.2269 19.906 25.7852 19.6336 25.5125C19.3613 25.2399 18.9197 25.2397 18.647 25.512L19.6331 26.4992ZM19.6331 29.3569C19.9057 29.0846 19.906 28.6429 19.6336 28.3703C19.3613 28.0977 18.9197 28.0974 18.647 28.3697L19.6331 29.3569ZM18.728 24.8239C19.0005 24.5514 19.0005 24.1097 18.728 23.8372C18.4556 23.5647 18.0138 23.5647 17.7414 23.8372L18.728 24.8239ZM15.7856 25.7929C15.5132 26.0653 15.5132 26.5071 15.7856 26.7796C16.0581 27.052 16.4998 27.052 16.7723 26.7796L15.7856 25.7929ZM16.146 22.2449C16.4184 21.9725 16.4184 21.5308 16.146 21.2584C15.8735 20.9859 15.4318 20.9859 15.1593 21.2584L16.146 22.2449ZM13.1902 23.2275C12.9177 23.5 12.9177 23.9417 13.1902 24.2141C13.4626 24.4866 13.9044 24.4866 14.1768 24.2141L13.1902 23.2275ZM15.777 25.1921C16.0525 24.9226 16.0574 24.4809 15.788 24.2055C15.5186 23.9299 15.0769 23.925 14.8014 24.1945L15.777 25.1921ZM13.2112 25.7497C12.9357 26.0191 12.9308 26.4609 13.2002 26.7363C13.4696 27.0118 13.9113 27.0167 14.1868 26.7473L13.2112 25.7497ZM13.5052 20.331L11.9316 21.9027L12.9176 22.89L14.4913 21.3183L13.5052 20.331ZM11.487 21.4611L11.63 21.3183L10.644 20.331L10.5009 20.4739L11.487 21.4611ZM11.487 21.9027C11.3648 21.7807 11.3648 21.5832 11.487 21.4611L10.5009 20.4739C9.83302 21.141 9.83302 22.2229 10.5009 22.89L11.487 21.9027ZM11.9316 21.9027C11.8089 22.0253 11.6096 22.0253 11.487 21.9027L10.5009 22.89C11.1684 23.5566 12.2502 23.5566 12.9176 22.89L11.9316 21.9027ZM18.647 25.512L17.0733 27.0838L18.0594 28.071L19.6331 26.4992L18.647 25.512ZM19.49 29.4998L19.6331 29.3569L18.647 28.3697L18.504 28.5126L19.49 29.4998ZM17.0733 29.4998C17.7408 30.1665 18.8226 30.1665 19.49 29.4998L18.504 28.5126C18.3813 28.6351 18.182 28.6351 18.0594 28.5126L17.0733 29.4998ZM17.0733 27.0838C16.4054 27.7508 16.4054 28.8327 17.0733 29.4998L18.0594 28.5126C17.9372 28.3905 17.9372 28.193 18.0594 28.071L17.0733 27.0838ZM17.7414 23.8372L15.7856 25.7929L16.7723 26.7796L18.728 24.8239L17.7414 23.8372ZM15.1593 21.2584L13.1902 23.2275L14.1768 24.2141L16.146 22.2449L15.1593 21.2584ZM14.8014 24.1945L13.2112 25.7497L14.1868 26.7473L15.777 25.1921L14.8014 24.1945Z" fill="white"/>
<path d="M23.6789 10.2277C23.3228 10.3748 23.1533 10.7828 23.3004 11.1389C23.4475 11.495 23.8554 11.6645 24.2115 11.5174L23.6789 10.2277ZM17.9506 21.03C17.6777 21.3021 17.6771 21.7438 17.9491 22.0167C18.2211 22.2895 18.6629 22.2902 18.9357 22.0181L17.9506 21.03ZM20.5646 20.3942C20.8374 20.1222 20.8381 19.6804 20.566 19.4076C20.294 19.1347 19.8523 19.134 19.5794 19.4061L20.5646 20.3942ZM22.2831 13.2677C22.556 12.9956 22.5567 12.5539 22.2846 12.281C22.0126 12.0081 21.5708 12.0075 21.298 12.2795L22.2831 13.2677ZM27.4601 16.9622L22.837 21.5714L23.8222 22.5594L28.4452 17.9503L27.4601 16.9622ZM19.4787 21.5714L18.3928 20.4887L17.4076 21.4769L18.4935 22.5594L19.4787 21.5714ZM25.7809 11.3954H26.2307V10.0001H25.7809V11.3954ZM28.6044 13.7599V14.2084H29.9997V13.7599H28.6044ZM26.2307 11.3954C26.9743 11.3954 27.462 11.3969 27.823 11.4453C28.1642 11.491 28.2861 11.5669 28.3597 11.6403L29.3449 10.6522C28.9687 10.2771 28.5036 10.1287 28.0084 10.0623C27.5332 9.99864 26.9349 10.0001 26.2307 10.0001V11.3954ZM29.9997 13.7599C29.9997 13.0579 30.0012 12.4611 29.9372 11.9867C29.8705 11.492 29.7213 11.0275 29.3449 10.6522L28.3597 11.6403C28.433 11.7133 28.5087 11.834 28.5544 12.1732C28.6029 12.5326 28.6044 13.0184 28.6044 13.7599H29.9997ZM18.3928 20.4887C17.8669 19.9644 17.5233 19.6198 17.3025 19.3312C17.094 19.0587 17.0622 18.9201 17.0622 18.8175H15.6669C15.6669 19.3492 15.8911 19.7828 16.1944 20.1792C16.4855 20.5596 16.9097 20.9804 17.4076 21.4769L18.3928 20.4887ZM18.4935 22.5594C18.9914 23.0559 19.4136 23.4788 19.795 23.769C20.1926 24.0714 20.6266 24.2941 21.1579 24.2941V22.8988C21.0531 22.8988 20.9131 22.8663 20.6398 22.6584C20.3503 22.4382 20.0045 22.0956 19.4787 21.5714L18.4935 22.5594ZM28.4452 17.9503C29.0706 17.3268 29.53 16.8864 29.771 16.3062L28.4824 15.7708C28.3728 16.0347 28.1664 16.2581 27.4601 16.9622L28.4452 17.9503ZM28.6044 14.2084C28.6044 15.2042 28.5919 15.5072 28.4824 15.7708L29.771 16.3062C30.0121 15.7257 29.9997 15.09 29.9997 14.2084H28.6044ZM25.7809 10.0001C24.8961 10.0001 24.2599 9.98782 23.6789 10.2277L24.2115 11.5174C24.4772 11.4077 24.7825 11.3954 25.7809 11.3954V10.0001ZM18.9357 22.0181L20.5646 20.3942L19.5794 19.4061L17.9506 21.03L18.9357 22.0181ZM22.837 21.5714C22.4318 21.9754 22.1306 22.2752 21.8727 22.4979C21.6136 22.7216 21.4481 22.8225 21.327 22.8671L21.8093 24.1763C22.1652 24.0453 22.4817 23.8156 22.7847 23.5538C23.0889 23.2912 23.43 22.9506 23.8222 22.5594L22.837 21.5714ZM21.327 22.8671C21.265 22.8899 21.212 22.8988 21.1579 22.8988V24.2941C21.3849 24.2941 21.6009 24.2532 21.8093 24.1763L21.327 22.8671ZM17.4076 16.1582C17.0247 16.54 16.6904 16.8728 16.4302 17.1697C16.1713 17.4651 15.943 17.7717 15.8058 18.113L17.1004 18.6336C17.1499 18.5104 17.2562 18.3443 17.4797 18.0892C17.7019 17.8356 17.9978 17.5401 18.3928 17.1463L17.4076 16.1582ZM15.8058 18.113C15.7158 18.3367 15.6669 18.57 15.6669 18.8175H17.0622C17.0622 18.7605 17.0723 18.7035 17.1004 18.6336L15.8058 18.113ZM18.3928 17.1463L22.2831 13.2677L21.298 12.2795L17.4076 16.1582L18.3928 17.1463Z" fill="white"/>
<path d="M16.3137 18.2343L16.807 17.741L16.8063 17.7403L16.3137 18.2343ZM19.6936 15.0732C20.0176 15.2817 20.4493 15.1881 20.6578 14.8641C20.8664 14.5401 20.7728 14.1084 20.4488 13.8999L19.6936 15.0732ZM14.0025 17.2538C14.3587 17.4006 14.7665 17.2308 14.9133 16.8745C15.0601 16.5183 14.8903 16.1105 14.534 15.9637L14.0025 17.2538ZM15.9598 18.867C16.2322 19.1394 16.6739 19.1394 16.9464 18.867C17.2188 18.5945 17.2188 18.1528 16.9464 17.8804L15.9598 18.867ZM16.4265 17.3616C16.1536 17.0895 15.7119 17.0902 15.4398 17.3631C15.1678 17.6359 15.1685 18.0777 15.4413 18.3497L16.4265 17.3616ZM20.4488 13.8999L19.9512 13.5797L19.1961 14.753L19.6936 15.0732L20.4488 13.8999ZM19.9512 13.5797C19.4613 13.2643 19.0607 13.0059 18.715 12.8196C18.3606 12.6286 18.0217 12.4895 17.6439 12.4336L17.4399 13.814C17.5968 13.8372 17.7749 13.8981 18.0531 14.048C18.3401 14.2026 18.6881 14.426 19.1961 14.753L19.9512 13.5797ZM14.1589 15.9547C14.6046 15.5104 15.0804 15.0362 15.5075 14.6466C15.7208 14.452 15.9137 14.2861 16.078 14.1595C16.253 14.0246 16.3562 13.9654 16.3961 13.9488L15.8614 12.66C15.6448 12.7499 15.4225 12.903 15.2261 13.0544C15.019 13.214 14.7944 13.4084 14.5671 13.6158C14.1127 14.0303 13.6139 14.5277 13.1738 14.9665L14.1589 15.9547ZM17.6439 12.4336C17.0437 12.3449 16.4273 12.4252 15.8614 12.66L16.3961 13.9488C16.7355 13.808 17.097 13.7633 17.4399 13.814L17.6439 12.4336ZM13.6144 17.0998L13.9138 17.2184L14.4278 15.9212L14.1284 15.8026L13.6144 17.0998ZM13.9138 17.2184C13.9644 17.2384 13.9838 17.2461 14.0025 17.2538L14.534 15.9637C14.5046 15.9516 14.4751 15.9399 14.4278 15.9212L13.9138 17.2184ZM13.1738 14.9665C12.5085 15.6299 12.7432 16.7545 13.6144 17.0998L14.1284 15.8026C14.1885 15.8263 14.207 15.9067 14.1589 15.9547L13.1738 14.9665ZM15.8204 18.7276L15.9598 18.867L16.9464 17.8804L16.807 17.741L15.8204 18.7276ZM15.4413 18.3497L15.8211 18.7284L16.8063 17.7403L16.4265 17.3616L15.4413 18.3497Z" fill="white"/>
<path d="M21.7902 23.744L21.2968 24.2373C21.3076 24.2481 21.3187 24.2585 21.3302 24.2686L21.7902 23.744ZM26.0875 19.5217C25.878 19.1982 25.4461 19.1059 25.1227 19.3152C24.7992 19.5246 24.7068 19.9566 24.9163 20.2801L26.0875 19.5217ZM24.2165 25.9167C24.0739 25.5589 23.668 25.3844 23.3101 25.5271C22.9522 25.6697 22.7777 26.0755 22.9204 26.4335L24.2165 25.9167ZM21.7437 24.6311C22.0333 24.8851 22.4742 24.8562 22.7282 24.5664C22.9822 24.2767 22.9532 23.8359 22.6636 23.5819L21.7437 24.6311ZM22.0611 23.0283C21.7887 22.7558 21.3469 22.7558 21.0745 23.0283C20.802 23.3008 20.802 23.7425 21.0745 24.015L22.0611 23.0283ZM24.9163 20.2801L25.2374 20.7761L26.4086 20.0177L26.0875 19.5217L24.9163 20.2801ZM24.0323 25.7924L23.9658 25.8587L24.951 26.8468L25.0175 26.7805L24.0323 25.7924ZM25.2374 20.7761C25.5654 21.2827 25.7894 21.6294 25.9444 21.9154C26.0947 22.1927 26.1555 22.3696 26.1787 22.5251L27.5587 22.3199C27.5026 21.9424 27.3627 21.604 27.1711 21.2505C26.9841 20.9056 26.725 20.5062 26.4086 20.0177L25.2374 20.7761ZM25.0175 26.7805C25.4576 26.3417 25.9565 25.8444 26.3722 25.3914C26.5803 25.1647 26.7752 24.9408 26.9354 24.7342C27.0872 24.5385 27.241 24.3167 27.3314 24.1002L26.0437 23.5627C26.0273 23.6021 25.9682 23.7047 25.8327 23.8793C25.7057 24.043 25.5395 24.2353 25.3443 24.448C24.9535 24.8738 24.4779 25.3482 24.0323 25.7924L25.0175 26.7805ZM26.1787 22.5251C26.2293 22.8659 26.1846 23.2251 26.0437 23.5627L27.3314 24.1002C27.5672 23.5352 27.6479 22.9196 27.5587 22.3199L26.1787 22.5251ZM22.6636 23.5819L22.2501 23.2194L21.3302 24.2686L21.7437 24.6311L22.6636 23.5819ZM23.9658 25.8587C24.0065 25.8181 24.0613 25.8085 24.1004 25.8164C24.1397 25.8243 24.1923 25.8561 24.2165 25.9167L22.9204 26.4335C23.2524 27.2663 24.3298 27.4661 24.951 26.8468L23.9658 25.8587ZM22.2835 23.2506L22.0611 23.0283L21.0745 24.015L21.2968 24.2373L22.2835 23.2506Z" fill="white"/>
<path d="M22.837 17.5945C23.1099 17.8665 23.5516 17.8659 23.8236 17.593C24.0957 17.3201 24.095 16.8784 23.8221 16.6064L22.837 17.5945ZM25.0087 16.6064C24.7359 16.8784 24.7353 17.3201 25.0072 17.593C25.2793 17.8659 25.7211 17.8665 25.9939 17.5945L25.0087 16.6064ZM25.9939 14.4411C25.1219 13.5717 23.709 13.5717 22.837 14.4411L23.8221 15.4292C24.1496 15.1028 24.6813 15.1028 25.0087 15.4292L25.9939 14.4411ZM22.837 14.4411C21.9639 15.3117 21.9639 16.7239 22.837 17.5945L23.8221 16.6064C23.4959 16.2811 23.4959 15.7545 23.8221 15.4292L22.837 14.4411ZM25.9939 17.5945C26.8671 16.7239 26.8671 15.3117 25.9939 14.4411L25.0087 15.4292C25.3351 15.7545 25.3351 16.2811 25.0087 16.6064L25.9939 17.5945Z" fill="white"/>
</svg>
