<svg width="47" height="46" viewBox="0 0 47 46" fill="none" xmlns="http://www.w3.org/2000/svg">
<path d="M23.4316 0.243652C13.5521 0.243652 5.11659 6.6273 2.00076 15.4428H45.0144C41.8226 6.6273 33.387 0.243652 23.4316 0.243652Z" fill="#F9F9F9"/>
<path d="M23.4316 45.8413C33.387 45.8413 41.8226 39.4576 44.9384 30.6421H2.00076C5.11659 39.5336 13.5521 45.8413 23.4316 45.8413Z" fill="#ED4C5C"/>
<path d="M2.0007 15.4427C1.16475 17.7986 0.708771 20.3825 0.708771 23.0423C0.708771 25.7022 1.16475 28.286 2.0007 30.6419H45.0143C45.8503 28.286 46.3063 25.7022 46.3063 23.0423C46.3063 20.3825 45.8503 17.7986 45.0143 15.4427H2.0007Z" fill="#428BC1"/>
</svg>
