<svg width="28" height="28" viewBox="0 0 28 28" fill="none" xmlns="http://www.w3.org/2000/svg">
<path d="M14 28C21.732 28 28 21.732 28 14C28 6.26801 21.732 0 14 0C6.26801 0 0 6.26801 0 14C0 21.732 6.26801 28 14 28Z" fill="url(#paint0_linear_1_255)"/>
<path d="M20.9866 8.2088C21.1112 7.40332 20.3454 6.76755 19.6292 7.082L5.36482 13.3448C4.85123 13.5703 4.8888 14.3483 5.42147 14.5179L8.3631 15.4547C8.9246 15.6335 9.5325 15.541 10.0228 15.2023L16.655 10.6203C16.855 10.4821 17.073 10.7665 16.9021 10.9426L12.1281 15.8646C11.665 16.3421 11.7569 17.1512 12.314 17.5005L17.659 20.8523C18.2585 21.2282 19.0297 20.8506 19.1418 20.1261L20.9866 8.2088Z" fill="white"/>
<defs>
<linearGradient id="paint0_linear_1_255" x1="14" y1="0" x2="14" y2="28" gradientUnits="userSpaceOnUse">
<stop stop-color="#37BBFE"/>
<stop offset="1" stop-color="#007DBB"/>
</linearGradient>
</defs>
</svg>
