<svg width="41" height="41" viewBox="0 0 41 41" fill="none" xmlns="http://www.w3.org/2000/svg">
    <g clip-path="url(#clip0_94_9167)">
    <path d="M20.4682 40.9158C31.6082 40.9158 40.6389 31.885 40.6389 20.745C40.6389 9.60499 31.6082 0.574219 20.4682 0.574219C9.32813 0.574219 0.297363 9.60499 0.297363 20.745C0.297363 31.885 9.32813 40.9158 20.4682 40.9158Z" fill="#F0F0F0"/>
    <path d="M4.46643 8.46499C2.88271 10.5264 1.68728 12.9024 0.991699 15.4836H11.4851L4.46643 8.46499ZM39.9434 15.4836C39.2477 12.9026 38.0529 10.5266 36.4687 8.46514L29.4502 15.4836H39.9434ZM0.991699 26.0074C1.68743 28.5885 2.88216 30.9645 4.46643 33.0258L11.4848 26.0074H0.991699ZM32.7479 4.74426C30.6865 3.15991 28.3105 1.96527 25.7294 1.26953V11.7628L32.7479 4.74442V4.74426ZM8.18716 36.7465C10.2486 38.3302 12.6246 39.5256 15.2056 40.2214V29.7281L8.18716 36.7465ZM15.2056 1.26953C12.6245 1.96527 10.2485 3.15999 8.18716 4.74426L15.2056 11.7627V1.26953ZM25.7295 40.2212C28.3106 39.5255 30.6866 38.3308 32.7479 36.7465L25.7295 29.7281V40.2212ZM29.4502 26.0074L36.4687 33.0259C38.053 30.9646 39.2478 28.5885 39.9434 26.0074H29.4502Z" fill="#0052B4"/>
    <path d="M40.4682 18.1134H23.0993V0.744961C22.2378 0.63284 21.3598 0.574219 20.4682 0.574219C19.5765 0.574219 18.6985 0.63284 17.8365 0.744961V18.1139H0.468106C0.355985 18.9753 0.297363 19.8533 0.297363 20.745C0.297363 21.6367 0.355985 22.5147 0.468106 23.3767H17.837V40.7458C18.7095 40.8592 19.5884 40.916 20.4682 40.9158C21.3479 40.9158 22.2267 40.8588 23.0991 40.7451V23.3761H40.4682C40.5819 22.5037 40.6389 21.6248 40.6389 20.745C40.6389 19.8653 40.5819 18.9864 40.4682 18.1141V18.1134ZM25.7301 26.0063L34.7311 35.008C35.1451 34.5941 35.54 34.1615 35.9168 33.713L28.2107 26.007L25.7302 26.0071L25.7301 26.0063ZM15.2062 26.0063H15.206L6.2052 35.008C6.61902 35.4219 7.05166 35.8168 7.50015 36.1936L15.2062 28.4874V26.0071V26.0063ZM15.2062 15.4825V15.4823L6.2052 6.48205C5.79122 6.89587 5.39632 7.32852 5.01953 7.777L12.7256 15.4831H15.206L15.2062 15.4825ZM25.7301 15.4825L34.7311 6.48205C34.3173 6.06808 33.8846 5.67317 33.4362 5.29647L25.7301 13.0026V15.4831V15.4825Z" fill="#D80027"/>
    </g>
    <defs>
    <clipPath id="clip0_94_9167">
    <rect width="40.3416" height="40.3416" fill="white" transform="translate(0.297363 0.574219)"/>
    </clipPath>
    </defs>
    </svg>
    