<svg width="47" height="47" viewBox="0 0 47 47" fill="none" xmlns="http://www.w3.org/2000/svg">
<path d="M45.9571 20.6755H26.3241V1.04322C25.3504 0.916482 24.358 0.85022 23.3501 0.85022C22.3421 0.85022 21.3497 0.916482 20.3754 1.04322V20.6762H0.743055C0.616319 21.6499 0.550056 22.6423 0.550056 23.6502C0.550056 24.6581 0.616319 25.6506 0.743055 26.6249H20.376V46.258C21.3622 46.3863 22.3556 46.4505 23.3501 46.4502C24.3445 46.4502 25.3379 46.3857 26.3239 46.2572V26.6243H45.9571C46.0855 25.6381 46.15 24.6447 46.1501 23.6502C46.15 22.6558 46.0855 21.6624 45.9571 20.6763V20.6755ZM29.2979 29.5973L39.4721 39.7723C39.9401 39.3046 40.3865 38.8155 40.8124 38.3086L32.1019 29.5981L29.298 29.5982L29.2979 29.5973ZM17.4022 29.5973H17.402L7.22796 39.7723C7.69572 40.2402 8.18476 40.6866 8.6917 41.1125L17.4022 32.4019V29.5982V29.5973ZM17.4022 17.7017V17.7016L7.22796 7.52813C6.76003 7.99588 6.31365 8.48492 5.88775 8.99187L14.5983 17.7024H17.402L17.4022 17.7017ZM29.2979 17.7017L39.4721 7.52813C39.0044 7.06019 38.5154 6.61381 38.0084 6.188L29.2979 14.8986V17.7024V17.7017Z" fill="#D80027"/>
</svg>
