<svg width="47" height="47" viewBox="0 0 47 47" fill="none" xmlns="http://www.w3.org/2000/svg">
<g clip-path="url(#clip0_0_2288)">
<path d="M23.3501 46.3194C35.9421 46.3194 46.1501 36.1115 46.1501 23.5194C46.1501 10.9273 35.9421 0.71936 23.3501 0.71936C10.758 0.71936 0.550056 10.9273 0.550056 23.5194C0.550056 36.1115 10.758 46.3194 23.3501 46.3194Z" fill="#F0F0F0"/>
<path d="M22.3588 23.5193H46.1501C46.1511 21.5107 45.887 19.5108 45.3646 17.5714H22.3588V23.5193ZM22.3588 11.6236H42.8036C41.4094 9.35003 39.6291 7.33721 37.5427 5.67578H22.3588V11.6236ZM23.3501 46.3193C28.7161 46.3193 33.648 44.4646 37.5427 41.3628H9.15743C13.0521 44.4646 17.9841 46.3193 23.3501 46.3193ZM3.89651 35.4149H42.8036C43.924 33.5865 44.7931 31.5879 45.3646 29.467H1.33561C1.90712 31.588 2.77602 33.5865 3.89651 35.4149Z" fill="#D80027"/>
<path d="M11.1114 4.2799H13.1893L11.2566 5.68397L11.9949 7.95596L10.0623 6.55189L8.12963 7.95596L8.76732 5.99329C7.06569 7.41071 5.57425 9.07129 4.34519 10.9217H5.01093L3.78071 11.8155C3.58887 12.1356 3.40493 12.4604 3.22906 12.7896L3.81651 14.5976L2.72051 13.8014C2.44798 14.3785 2.19887 14.9688 1.97488 15.5713L2.6221 17.5635H5.01093L3.07827 18.9676L3.8166 21.2395L1.88395 19.8355L0.7264 20.6765C0.608993 21.6196 0.550099 22.569 0.550056 23.5194H23.3501V0.71936C18.846 0.71936 14.6473 2.02591 11.1114 4.2799ZM11.9948 21.2394L10.0621 19.8353L8.12945 21.2394L8.86778 18.9674L6.93513 17.5633H9.32396L10.0621 15.2913L10.8003 17.5633H13.1891L11.2564 18.9674L11.9948 21.2394ZM11.2564 12.3257L11.9948 14.5977L10.0621 13.1936L8.12945 14.5977L8.86778 12.3257L6.93513 10.9216H9.32396L10.0621 8.64966L10.8003 10.9216H13.1891L11.2564 12.3257ZM20.173 21.2394L18.2404 19.8353L16.3077 21.2394L17.046 18.9674L15.1134 17.5633H17.5022L18.2404 15.2913L18.9785 17.5633H21.3673L19.4347 18.9674L20.173 21.2394ZM19.4347 12.3257L20.173 14.5977L18.2404 13.1936L16.3077 14.5977L17.046 12.3257L15.1134 10.9216H17.5022L18.2404 8.64966L18.9785 10.9216H21.3673L19.4347 12.3257ZM19.4347 5.68397L20.173 7.95596L18.2404 6.55189L16.3077 7.95596L17.046 5.68397L15.1134 4.2799H17.5022L18.2404 2.00792L18.9785 4.2799H21.3673L19.4347 5.68397Z" fill="#0052B4"/>
</g>
<defs>
<clipPath id="clip0_0_2288">
<rect width="45.6" height="45.6" fill="white" transform="translate(0.550056 0.71936)"/>
</clipPath>
</defs>
</svg>

