<svg width="22" height="22" viewBox="0 0 22 22" fill="none" xmlns="http://www.w3.org/2000/svg">
<path d="M0.480469 5.479C0.480469 2.71758 2.71905 0.479004 5.48047 0.479004H16.5221C19.2836 0.479004 21.5221 2.71758 21.5221 5.479V16.5207C21.5221 19.2821 19.2836 21.5207 16.5221 21.5207H5.48046C2.71904 21.5207 0.480469 19.2821 0.480469 16.5207V5.479Z" fill="#5181B8"/>
<path fill-rule="evenodd" clip-rule="evenodd" d="M17.3763 8.88525C17.4701 8.57275 17.3763 8.354 16.9388 8.354H15.4805C15.1284 8.354 14.9599 8.5285 14.8631 8.73089C14.8505 8.75715 14.8399 8.78334 14.8286 8.81016C14.7141 9.08096 14.014 10.6846 13.0534 11.7498C12.7096 12.0936 12.5638 12.1978 12.3763 12.1978C12.2826 12.1978 12.1471 12.0936 12.1471 11.7811V8.88525C12.1471 8.51025 12.043 8.354 11.7305 8.354H9.4388C9.20963 8.354 9.0638 8.53109 9.0638 8.68734C9.0638 9.0415 9.58463 9.12484 9.64713 10.104V12.2498C9.64713 12.7186 9.5638 12.8019 9.3763 12.8019C8.88672 12.8019 7.67838 10.9894 6.97005 8.90609C6.82422 8.52067 6.6888 8.354 6.3138 8.354H4.85547C4.4388 8.354 4.35547 8.55192 4.35547 8.77067C4.35547 9.15609 4.84505 11.0728 6.65755 13.604C7.86588 15.3332 9.5638 16.2707 11.1055 16.2707C12.0326 16.2707 12.1471 16.0623 12.1471 15.7082V14.3957C12.1471 13.979 12.2305 13.8957 12.5326 13.8957C12.7513 13.8957 13.1159 13.9998 13.9805 14.8332C14.9701 15.8228 15.1367 16.2707 15.6888 16.2707H17.1471C17.5638 16.2707 17.7721 16.0623 17.6471 15.6561C17.5117 15.2498 17.043 14.6561 16.418 13.9478C16.0742 13.5415 15.5638 13.1144 15.418 12.8957V12.8957C15.1309 12.5265 15.5604 12.0465 15.8218 11.6587C16.3584 10.8627 17.2534 9.47786 17.3763 8.88525Z" fill="white"/>
</svg>
