<svg width="46" height="47" viewBox="0 0 46 47" fill="none" xmlns="http://www.w3.org/2000/svg">
<g clip-path="url(#clip0_0_2323)">
<path d="M22.4329 45.5159C34.767 45.5159 44.7657 35.5171 44.7657 23.1831C44.7657 10.849 34.767 0.85022 22.4329 0.85022C10.0988 0.85022 0.100037 10.849 0.100037 23.1831C0.100037 35.5171 10.0988 45.5159 22.4329 45.5159Z" fill="#23E6A8"/>
<path opacity="0.6" d="M25.7711 3.48768C26.4852 2.4013 27.69 1.79701 28.929 1.81634C26.8739 1.19275 24.6935 0.857422 22.4348 0.857422C16.1139 0.857422 10.4063 3.4834 6.34348 7.70392L10.3503 9.32937C10.9732 9.58211 11.4417 10.1124 11.6157 10.7618C11.7777 11.3664 11.6675 12.0116 11.3141 12.5282L9.52359 15.1448C8.64736 16.4253 8.37421 18.0248 8.77581 19.5235C8.84787 19.7926 8.8987 20.0667 8.92782 20.3437L9.25139 23.4206C9.40198 24.8525 8.48874 26.1814 7.0979 26.554C6.68458 26.6648 6.30056 26.8649 5.9729 27.14L3.93794 28.8492C3.67484 29.0702 3.36648 29.2308 3.0346 29.3197C2.26165 29.5269 1.68243 30.096 1.43051 30.796C1.99372 32.351 2.7247 33.8257 3.60159 35.1982C4.45323 35.5037 5.43557 35.4527 6.30058 34.9439L7.20403 34.4123C7.51435 34.2297 7.84794 34.0899 8.19572 33.9968L11.1433 33.207C13.512 32.5722 16.0412 33.071 17.9918 34.5574L21.896 36.8442C22.5333 37.2175 23.0734 37.7358 23.4724 38.3573L23.9662 39.1261C25.5579 41.6046 24.2784 44.5474 21.9726 45.5184C22.1262 45.5215 22.2803 45.5231 22.4348 45.5231C31.0338 45.5231 38.4976 40.6631 42.2297 33.5402C42.0878 33.5301 41.9452 33.5105 41.8027 33.4808C41.3125 33.3788 40.8052 33.3931 40.3216 33.5227L37.0084 34.4104C35.8368 34.7244 34.5894 34.5772 33.5231 33.9992C32.0141 33.1812 31.0653 31.6112 31.0427 29.8948L31.0128 27.6187C30.9867 25.632 32.0919 23.8031 33.8627 22.9024L35.4761 22.0818C36.4669 21.578 37.0353 20.507 36.8975 19.404L36.8277 18.8459C36.6661 17.5531 35.3997 16.7009 34.1413 17.0382C33.448 17.2239 32.8933 17.7438 32.6632 18.4236L32.2035 19.7814C31.8457 20.8382 30.8581 21.5526 29.7424 21.5615C28.2704 21.5732 27.0775 20.3706 27.1014 18.8987L27.1177 17.8898L26.6874 13.3258C26.5925 12.3185 26.3052 11.3387 25.8412 10.4396L25.6479 10.0651C24.8129 8.44688 24.6522 6.56395 25.201 4.82767L25.334 4.40711C25.4367 4.08199 25.5838 3.7726 25.7711 3.48768Z" fill="#06666E"/>
</g>
<defs>
<clipPath id="clip0_0_2323">
<rect width="45.6" height="45.6" fill="white" transform="translate(0.100037 0.85022)"/>
</clipPath>
</defs>
</svg>
