<svg width="29" height="20" viewBox="0 0 29 20" fill="none" xmlns="http://www.w3.org/2000/svg">
<path d="M15.0969 19.9744L9.16517 19.8658C7.24456 19.8281 5.31922 19.9036 3.43636 19.5119C0.571949 18.9268 0.369034 16.0576 0.156681 13.651C-0.135895 10.2675 -0.0226396 6.82264 0.529479 3.46746C0.84093 1.58459 2.06786 0.461478 3.96488 0.338785C10.3685 -0.104797 16.8146 -0.0528882 23.2041 0.154746C23.8789 0.173622 24.5584 0.277439 25.2238 0.395413C28.5082 0.971126 28.5884 4.22249 28.8008 6.95949C29.0131 9.7248 28.9235 12.5043 28.5176 15.2507C28.192 17.5252 27.5691 19.4317 24.9407 19.6157C21.6468 19.8564 18.4285 20.0499 15.1252 19.9885C15.1252 19.9744 15.1063 19.9744 15.0969 19.9744ZM11.6096 14.2172C14.0918 12.7921 16.5268 11.3906 18.9948 9.9749C16.5079 8.54977 14.0776 7.14824 11.6096 5.73256V14.2172Z" fill="#FF0000"/>
</svg>
