<svg width="41" height="41" viewBox="0 0 41 41" fill="none" xmlns="http://www.w3.org/2000/svg">
<rect x="0.510925" y="0.529297" width="40" height="40" rx="5" fill="#AA70E6"/>
<path d="M6.61169 5.87598H8.53531C8.89763 5.87598 9.07879 5.87598 9.22458 5.9426C9.35306 6.00131 9.46194 6.09574 9.53823 6.21462C9.62479 6.34952 9.65042 6.52887 9.70165 6.88753L10.3987 11.7669M10.3987 11.7669L11.9479 23.1532C12.1445 24.5981 12.2427 25.3205 12.5882 25.8643C12.8926 26.3436 13.3289 26.7246 13.8448 26.9615C14.4302 27.2306 15.1593 27.2306 16.6176 27.2306H29.221C30.6091 27.2306 31.3032 27.2306 31.8704 26.9808C32.3704 26.7605 32.7994 26.4056 33.1095 25.9555C33.4608 25.4451 33.5907 24.7632 33.8505 23.3996L35.7998 13.1655C35.8913 12.6856 35.9369 12.4456 35.8707 12.258C35.8126 12.0935 35.6979 11.9549 35.5471 11.867C35.3752 11.7669 35.1311 11.7669 34.6424 11.7669H10.3987ZM18.3935 33.8579C18.3935 34.6711 17.7341 35.3306 16.9208 35.3306C16.1074 35.3306 15.4481 34.6711 15.4481 33.8579C15.4481 33.0445 16.1074 32.3851 16.9208 32.3851C17.7341 32.3851 18.3935 33.0445 18.3935 33.8579ZM30.1753 33.8579C30.1753 34.6711 29.516 35.3306 28.7026 35.3306C27.8892 35.3306 27.2299 34.6711 27.2299 33.8579C27.2299 33.0445 27.8892 32.3851 28.7026 32.3851C29.516 32.3851 30.1753 33.0445 30.1753 33.8579Z" stroke="white" stroke-width="0.887591" stroke-linecap="round" stroke-linejoin="round"/>
</svg>
