<svg width="40" height="41" viewBox="0 0 40 41" fill="none" xmlns="http://www.w3.org/2000/svg">
<rect x="3.05176e-05" y="0.529297" width="40" height="40" rx="5" fill="#AA70E6"/>
<path d="M14.0713 17.1076H20.3676M14.0713 22.6169H25.0898M21.1546 33.6355C28.5441 33.6355 34.5343 27.6451 34.5343 20.2558C34.5343 12.8663 28.5441 6.87598 21.1546 6.87598C13.7653 6.87598 7.77497 12.8663 7.77497 20.2558C7.77497 21.7511 8.02029 23.1891 8.47287 24.5319C8.64318 25.0372 8.72834 25.2898 8.74371 25.4839C8.75886 25.6756 8.7474 25.8099 8.69998 25.9963C8.65197 26.185 8.54594 26.3811 8.33391 26.7737L5.75924 31.5393C5.39199 32.2191 5.20838 32.5589 5.24947 32.8212C5.28527 33.0497 5.41974 33.2509 5.61716 33.3713C5.84385 33.5095 6.22811 33.4699 6.99664 33.3904L15.0576 32.5572C15.3017 32.5319 15.4237 32.5193 15.535 32.5235C15.6444 32.5278 15.7216 32.538 15.8283 32.5626C15.9368 32.5876 16.0733 32.6402 16.3461 32.7453C17.8385 33.3202 19.4598 33.6355 21.1546 33.6355Z" stroke="white" stroke-width="0.887591" stroke-linecap="round" stroke-linejoin="round"/>
</svg>
