<svg width="41" height="41" viewBox="0 0 41 41" fill="none" xmlns="http://www.w3.org/2000/svg">
<rect x="0.883179" y="0.529297" width="40" height="40" rx="5" fill="#AA70E6"/>
<path d="M9.1216 8.651H31.9031C33.7006 8.651 35.1576 10.1081 35.1576 11.9055V28.178C35.1576 29.9755 33.7006 31.4325 31.9031 31.4325H9.1216C7.32418 31.4325 5.8671 29.9755 5.8671 28.178V11.9055C5.8671 10.1081 7.32418 8.651 9.1216 8.651Z" stroke="white" stroke-width="0.887591" stroke-linecap="round" stroke-linejoin="round"/>
<path d="M12.3761 24.9235V18.4145C12.3761 16.6171 13.8332 15.16 15.6306 15.16C17.428 15.16 18.8851 16.6171 18.8851 18.4145V24.9235" stroke="white" stroke-width="0.887591" stroke-linecap="round" stroke-linejoin="round"/>
<path d="M28.6486 15.16V24.9235" stroke="white" stroke-width="0.887591" stroke-linecap="round" stroke-linejoin="round"/>
<path d="M28.6486 20.0419H26.2077C22.9532 20.0419 22.9532 24.9236 26.2077 24.9236H28.6486" stroke="white" stroke-width="0.887591" stroke-linecap="round" stroke-linejoin="round"/>
<path d="M12.3761 21.6688H18.8851" stroke="white" stroke-width="0.887591" stroke-linecap="round" stroke-linejoin="round"/>
</svg>
