<svg width="40" height="41" viewBox="0 0 40 41" fill="none" xmlns="http://www.w3.org/2000/svg">
<rect y="0.529297" width="40" height="40" rx="5" fill="#AA70E6"/>
<path d="M15.2526 20.2282L18.2482 23.2238L24.9884 16.4836M31.7285 20.9771C31.7285 28.3291 23.7092 33.6761 20.7915 35.3784C20.4599 35.5719 20.2941 35.6685 20.0601 35.7187C19.8784 35.7576 19.6136 35.7576 19.4319 35.7187C19.198 35.6685 19.0322 35.5719 18.7006 35.3784C15.7828 33.6761 7.76355 28.3291 7.76355 20.9771V13.814C7.76355 12.6164 7.76355 12.0177 7.9594 11.503C8.13242 11.0483 8.41357 10.6426 8.77856 10.3209C9.19171 9.95685 9.75234 9.74661 10.8736 9.32613L18.9046 6.31453C19.216 6.19776 19.3716 6.13938 19.5318 6.11622C19.6738 6.0957 19.8182 6.0957 19.9602 6.11622C20.1205 6.13938 20.2761 6.19776 20.5875 6.31453L28.6185 9.32613C29.7397 9.74661 30.3004 9.95685 30.7134 10.3209C31.0785 10.6426 31.3596 11.0483 31.5326 11.503C31.7285 12.0177 31.7285 12.6164 31.7285 13.814V20.9771Z" stroke="white" stroke-width="0.887591" stroke-linecap="round" stroke-linejoin="round"/>
</svg>
