<svg width="41" height="41" viewBox="0 0 41 41" fill="none" xmlns="http://www.w3.org/2000/svg">
<rect x="0.627747" y="0.529297" width="40" height="40" rx="5" fill="#0A9E5C"/>
<path d="M33.7591 10.5388C33.7591 12.9898 27.7984 14.9767 20.4453 14.9767C13.0922 14.9767 7.13141 12.9898 7.13141 10.5388M33.7591 10.5388C33.7591 8.08776 27.7984 6.10083 20.4453 6.10083C13.0922 6.10083 7.13141 8.08776 7.13141 10.5388M33.7591 10.5388V31.2493C33.7591 33.705 27.8419 35.6873 20.4453 35.6873C13.0487 35.6873 7.13141 33.705 7.13141 31.2493V10.5388M33.7591 20.8941C33.7591 23.3497 27.8419 25.332 20.4453 25.332C13.0487 25.332 7.13141 23.3497 7.13141 20.8941" stroke="white" stroke-width="0.887591" stroke-linecap="round" stroke-linejoin="round"/>
</svg>
