<svg width="41" height="41" viewBox="0 0 41 41" fill="none" xmlns="http://www.w3.org/2000/svg">
<rect x="0.255463" y="0.529297" width="40" height="40" rx="5" fill="#AA70E6"/>
<path d="M11.2761 19.5197H17.2632M14.2697 16.5261V22.5133M24.7473 21.0165H24.7622M29.2377 18.0229H29.2527M17.9353 10.5388H22.5786C26.5075 10.5388 28.4719 10.5388 30.014 11.2834C31.3716 11.9389 32.4996 12.9892 33.2502 14.2967C34.1026 15.7817 34.2426 17.7412 34.5226 21.6601L34.8909 26.8159C35.0714 29.3438 33.0692 31.4941 30.5348 31.4941C29.2388 31.4941 28.0096 30.9185 27.1799 29.9228L26.6183 29.2489C26.1047 28.6325 25.8479 28.3244 25.5554 28.0753C24.9425 27.5533 24.2002 27.2056 23.4067 27.069C23.0282 27.0037 22.627 27.0037 21.8248 27.0037H18.6891C17.8868 27.0037 17.4857 27.0037 17.1071 27.069C16.3136 27.2056 15.5714 27.5533 14.9584 28.0753C14.6659 28.3244 14.4091 28.6325 13.8955 29.2489L13.3339 29.9228C12.5042 30.9185 11.2751 31.4941 9.979 31.4941C7.44457 31.4941 5.44241 29.3438 5.62298 26.8159L5.99124 21.6601C6.27118 17.7412 6.41113 15.7817 7.26367 14.2967C8.01427 12.9892 9.14227 11.9389 10.4999 11.2834C12.0419 10.5388 14.0063 10.5388 17.9353 10.5388Z" stroke="white" stroke-width="0.887591" stroke-linecap="round" stroke-linejoin="round"/>
</svg>
