<svg width="22" height="20" viewBox="0 0 22 20" fill="none" xmlns="http://www.w3.org/2000/svg">
<g id="Group 67">
<path id="Vector" d="M18.6923 4.84534H3.30769C2.03319 4.84534 1 5.87853 1 7.15303V16.3838C1 17.6583 2.03319 18.6915 3.30769 18.6915H18.6923C19.9668 18.6915 21 17.6583 21 16.3838V7.15303C21 5.87853 19.9668 4.84534 18.6923 4.84534Z" stroke="white" stroke-linejoin="round"/>
<path id="Vector_2" d="M18.4692 4.84538V3.40307C18.4691 3.04933 18.3909 2.69996 18.2403 2.37991C18.0896 2.05986 17.8701 1.77701 17.5975 1.55155C17.3249 1.32608 17.006 1.16355 16.6633 1.07556C16.3207 0.987563 15.9629 0.976274 15.6154 1.0425L2.95385 3.20355C2.404 3.30834 1.90796 3.60172 1.55127 4.03309C1.19459 4.46447 0.999621 5.00679 1 5.56653V7.9223" stroke="white" stroke-linejoin="round"/>
<path id="Vector_3" d="M17 13C16.8022 13 16.6089 12.9414 16.4444 12.8315C16.28 12.7216 16.1518 12.5654 16.0761 12.3827C16.0004 12.2 15.9806 11.9989 16.0192 11.8049C16.0578 11.6109 16.153 11.4327 16.2929 11.2929C16.4327 11.153 16.6109 11.0578 16.8049 11.0192C16.9989 10.9806 17.2 11.0004 17.3827 11.0761C17.5654 11.1518 17.7216 11.28 17.8315 11.4444C17.9414 11.6089 18 11.8022 18 12C18 12.2652 17.8946 12.5196 17.7071 12.7071C17.5196 12.8946 17.2652 13 17 13Z" fill="white"/>
</g>
</svg>
