<svg width="59" height="60" viewBox="0 0 59 60" fill="none" xmlns="http://www.w3.org/2000/svg">
<path id="Vector" d="M0 13.0337C0 12.0865 0.239907 11.7289 1.1242 11.3669C10.209 7.64207 19.2943 3.91603 28.38 0.188758C28.9183 -0.0315296 29.4128 -0.0770564 29.9635 0.149106C39.102 3.90575 48.2431 7.65676 57.3868 11.4021C58.1673 11.7223 58.4416 12.1298 58.4416 12.975C58.4416 24.332 58.4416 35.6891 58.4416 47.0462C58.4416 47.8539 58.149 48.2798 57.3956 48.5882C48.2284 52.3433 39.0634 56.099 29.9006 59.8552C29.6837 59.9507 29.4493 60 29.2124 60C28.9754 60 28.7411 59.9507 28.5241 59.8552C21.0528 56.7858 13.5794 53.7209 6.10374 50.6603C4.42341 49.9721 2.74333 49.284 1.06349 48.5962C0.253803 48.2629 0 47.8796 0 46.9977V13.0337ZM27.8241 56.5413V56.1521C27.8241 45.9239 27.8273 35.6957 27.8336 25.4675C27.8336 25.154 27.7027 25.0541 27.454 24.9535C19.9681 21.892 12.4832 18.8275 4.99929 15.7602L2.78599 14.8548V15.3791C2.78599 25.5094 2.78283 35.6399 2.77649 45.7707C2.77649 46.1577 2.8862 46.3339 3.25192 46.483C10.1215 49.2831 16.9864 52.0934 23.8466 54.9141C25.153 55.4487 26.4593 55.9825 27.8241 56.5413ZM5.11412 12.7642C5.27576 12.8377 5.36939 12.8891 5.4674 12.9295C13.2907 16.1349 21.1153 19.3369 28.941 22.5355C29.1165 22.5986 29.3083 22.5986 29.4837 22.5355C30.9319 21.9591 32.3729 21.3606 33.816 20.7732C40.1964 18.1601 46.5769 15.546 52.9573 12.9309C53.059 12.8891 53.157 12.8355 53.3077 12.7628C53.1058 12.6739 52.9749 12.6123 52.841 12.5572C45.1323 9.39483 37.4241 6.23052 29.7163 3.06425C29.5596 2.99202 29.3892 2.95462 29.2168 2.95462C29.0443 2.95462 28.8739 2.99202 28.7172 3.06425C21.1806 6.1659 13.6408 9.26021 6.09789 12.3472C5.78776 12.4735 5.48129 12.6086 5.11412 12.7642Z" fill="white"/>
</svg>
