<svg width="22" height="22" viewBox="0 0 22 22" fill="none" xmlns="http://www.w3.org/2000/svg">
<g id="Group 114623">
<g id="SVGRepo_iconCarrier">
<path id="Vector" d="M9.125 7.875C9.125 6.83947 9.9645 6 11 6C12.0355 6 12.875 6.83947 12.875 7.875C12.875 8.56245 12.505 9.1635 11.9534 9.4899C11.478 9.7711 11 10.1977 11 10.75V12" stroke="white" stroke-linecap="round"/>
<path id="Vector_2" d="M11 16C11.5523 16 12 15.5523 12 15C12 14.4477 11.5523 14 11 14C10.4477 14 10 14.4477 10 15C10 15.5523 10.4477 16 11 16Z" fill="white"/>
<path id="Vector_3" d="M6 2.33782C7.47087 1.48697 9.1786 1 11 1C16.5228 1 21 5.47715 21 11C21 16.5228 16.5228 21 11 21C5.47715 21 1 16.5228 1 11C1 9.1786 1.48697 7.47087 2.33782 6" stroke="white" stroke-linecap="round"/>
</g>
</g>
</svg>
