<svg width="378" height="20" viewBox="0 0 378 20" fill="none" xmlns="http://www.w3.org/2000/svg">
<mask id="mask0_721_163" style="mask-type:luminance" maskUnits="userSpaceOnUse" x="0" y="0" width="22" height="20">
<path d="M21.0708 0H0V20H21.0708V0Z" fill="white"/>
</mask>
<g mask="url(#mask0_721_163)">
<path d="M10.5354 20.0001C16.354 20.0001 21.0708 15.5229 21.0708 10C21.0708 4.47716 16.354 0 10.5354 0C4.71688 0 0 4.47716 0 10C0 15.5229 4.71688 20.0001 10.5354 20.0001Z" fill="#FF492C"/>
<path d="M15.0971 7.66288H13.2976C13.346 7.39487 13.5209 7.24488 13.8749 7.07488L14.2057 6.91488C14.7978 6.62687 15.1139 6.30087 15.1139 5.76887C15.1139 5.43488 14.9769 5.17088 14.705 4.98088C14.4333 4.79088 14.113 4.69688 13.738 4.69688C13.4478 4.69363 13.163 4.77079 12.9183 4.91888C12.6718 5.06287 12.4885 5.24887 12.3747 5.48087L12.8951 5.97687C13.0974 5.58887 13.3903 5.39887 13.7759 5.39887C14.1025 5.39887 14.3027 5.55888 14.3027 5.78088C14.3027 5.96688 14.2057 6.12087 13.8307 6.30087L13.6179 6.39887C13.1564 6.62088 12.8361 6.87488 12.6507 7.16287C12.4653 7.45087 12.3747 7.81288 12.3747 8.25088V8.37087H15.0971V7.66288ZM14.8568 9.18688H11.8774L10.3877 11.6349H13.3671L14.8568 14.0849L16.3466 11.6349L14.8568 9.18688Z" fill="white"/>
<path d="M10.6406 13.2564C8.74416 13.2564 7.19967 11.7904 7.19967 9.99037C7.19967 8.19037 8.74416 6.72437 10.6406 6.72437L11.8184 4.38636C11.4305 4.31315 11.036 4.2763 10.6406 4.27637C7.31557 4.27637 4.62061 6.83437 4.62061 9.99037C4.62061 13.1464 7.31557 15.7043 10.6406 15.7043C11.9147 15.7067 13.1564 15.3226 14.1847 14.6083L12.8825 12.4644C12.2595 12.9752 11.4638 13.2563 10.6406 13.2564Z" fill="white"/>
</g>
<path d="M31.8482 16.2597C30.969 16.2597 30.1953 16.0908 29.5271 15.7527C28.8589 15.4029 28.3432 14.9133 27.9796 14.284C27.6163 13.6544 27.4346 12.9317 27.4346 12.1157V7.88426C27.4346 7.05662 27.6163 6.3339 27.9796 5.71608C28.3432 5.08661 28.8589 4.60285 29.5271 4.2648C30.1953 3.91509 30.969 3.74023 31.8482 3.74023C32.7157 3.74023 33.4776 3.90927 34.1342 4.24731C34.8024 4.58536 35.3182 5.04581 35.6816 5.62866C36.0449 6.2115 36.2266 6.87012 36.2266 7.6045V7.74438C36.2266 7.80266 36.2032 7.85512 36.1563 7.90174C36.1211 7.93672 36.0742 7.9542 36.0157 7.9542H34.4155C34.3569 7.9542 34.3041 7.93672 34.2572 7.90174C34.222 7.85512 34.2045 7.80266 34.2045 7.74438V7.65694C34.2045 7.02748 33.9877 6.50874 33.5538 6.10076C33.1319 5.69276 32.5633 5.48877 31.8482 5.48877C31.1332 5.48877 30.5587 5.70442 30.125 6.13572C29.6912 6.55538 29.4743 7.1149 29.4743 7.81432V12.1856C29.4743 12.8851 29.7029 13.4504 30.1602 13.8817C30.6173 14.3014 31.2092 14.5111 31.9362 14.5111C32.6395 14.5111 33.1905 14.3305 33.589 13.9691C33.9993 13.5961 34.2045 13.0891 34.2045 12.4479V11.3638C34.2045 11.3055 34.1752 11.2764 34.1165 11.2764H31.9537C31.8951 11.2764 31.8423 11.2589 31.7955 11.2239C31.7604 11.1773 31.7427 11.1249 31.7427 11.0666V9.77267C31.7427 9.71438 31.7604 9.66776 31.7955 9.63278C31.8423 9.58616 31.8951 9.56284 31.9537 9.56284H36.0157C36.0742 9.56284 36.1211 9.58616 36.1563 9.63278C36.2032 9.66776 36.2266 9.71438 36.2266 9.77267V12.0108C36.2266 13.3513 35.8281 14.3947 35.031 15.1406C34.2456 15.8867 33.1846 16.2597 31.8482 16.2597ZM40.8386 14.2664C40.8152 14.2896 40.8034 14.3131 40.8034 14.3363C40.8152 14.3596 40.8386 14.3713 40.8738 14.3713H45.8853C45.944 14.3713 45.9907 14.3947 46.026 14.4412C46.0728 14.4762 46.0964 14.5228 46.0964 14.5811V15.9099C46.0964 15.9683 46.0728 16.0207 46.026 16.0673C45.9907 16.1023 45.944 16.1199 45.8853 16.1199H38.3241C38.2656 16.1199 38.2128 16.1023 38.1658 16.0673C38.1307 16.0207 38.1132 15.9683 38.1132 15.9099V14.6511C38.1132 14.5461 38.1483 14.4588 38.2186 14.3888C39.1096 13.4446 40.1411 12.2847 41.3133 10.9092L42.1398 9.94752C43.2183 8.70024 43.7577 7.75604 43.7577 7.1149C43.7577 6.63698 43.5876 6.24646 43.2476 5.9434C42.9078 5.64032 42.4681 5.48877 41.9289 5.48877C41.3896 5.48877 40.95 5.64032 40.61 5.9434C40.2818 6.24646 40.1178 6.64862 40.1178 7.14988V7.6045C40.1178 7.66278 40.0942 7.71524 40.0474 7.76186C40.0123 7.79682 39.9653 7.81432 39.9066 7.81432H38.2713C38.2128 7.81432 38.1599 7.79682 38.1132 7.76186C38.078 7.71524 38.0603 7.66278 38.0603 7.6045V6.85262C38.0837 6.22316 38.2656 5.67528 38.6054 5.20901C38.9454 4.74273 39.4026 4.38137 39.977 4.12491C40.5632 3.86847 41.2138 3.74023 41.9289 3.74023C42.7143 3.74023 43.4 3.88595 43.9861 4.17737C44.5724 4.46879 45.0238 4.87096 45.3402 5.38386C45.6566 5.8851 45.8149 6.45046 45.8149 7.07994C45.8149 8.0358 45.305 9.13736 44.2851 10.3846C43.7225 11.0841 42.7964 12.1332 41.5068 13.532L40.8386 14.2664Z" fill="#303B45"/>
<mask id="mask1_721_163" style="mask-type:luminance" maskUnits="userSpaceOnUse" x="52" y="1" width="94" height="18">
<path d="M145.712 1.42871H52.4602V18.5716H145.712V1.42871Z" fill="white"/>
</mask>
<g mask="url(#mask1_721_163)">
<path d="M129.166 8.35838L134.055 7.57276L136.687 3.21561L137.52 5.10325L138.78 6.32788L139.41 7.57276V16.1238L136.612 14.6442L132.024 16.787L132.626 11.8584L129.166 8.35838ZM54.0388 8.50124L58.927 7.71561L61.4839 3.07275L63.8152 7.64411L69.0793 8.50124L65.3945 11.9299L66.1465 16.9298L61.4839 14.787L56.8213 16.9298L57.423 12.0013L54.0388 8.50124ZM72.7643 8.50124L77.6525 7.71561L80.2094 3.07275L82.6159 7.64411L87.8049 8.50124L84.12 11.9299L84.9473 16.9298L80.2094 14.787L75.6221 16.9298L76.2236 12.0013L72.7643 8.50124ZM91.8658 8.50124L96.754 7.71561L99.311 3.07275L101.642 7.64411L106.906 8.50124L103.222 11.9299L104.049 16.9298L99.311 14.787L94.6484 16.9298L95.2501 12.0013L91.8658 8.50124ZM110.366 8.50124L115.254 7.71561L117.811 3.07275L120.217 7.64411L125.406 8.50124L121.722 11.9299L122.549 16.9298L117.811 14.787L113.223 16.9298L113.825 12.0013L110.366 8.50124Z" fill="#FF492C"/>
<path d="M70.5089 8.06338L64.2671 7.20626L61.4846 1.84912L58.702 7.20626L52.4602 8.06338L56.9724 12.2063L55.9195 18.1349L61.4846 15.3491L67.0496 18.1349L65.9967 12.2063L70.5089 8.06338ZM61.4846 14.0634L57.574 16.0634L58.326 11.9206L55.1675 8.99202L59.6045 8.3491L61.5597 4.56336L63.515 8.3491L67.952 8.99202L64.7935 11.9206L65.5455 16.0634L61.4846 14.0634ZM89.3097 8.06338L83.0678 7.20626L80.2852 1.84912L77.5028 7.20626L71.2609 8.06338L75.7731 12.2063L74.7202 18.1349L80.2852 15.3491L85.8503 18.1349L84.7975 12.2063L89.3097 8.06338ZM80.2852 14.0634L76.3747 16.0634L77.1267 11.9206L73.9682 8.99202L78.4052 8.3491L80.3605 4.56336L82.3157 8.3491L86.7527 8.99202L83.5942 11.9206L84.3463 16.0634L80.2852 14.0634ZM108.11 8.06338L101.868 7.20626L99.0861 1.84912L96.3035 7.20626L90.0616 8.06338L94.5738 12.2063L93.5209 18.1349L99.0861 15.3491L104.651 18.1349L103.598 12.2063L108.11 8.06338ZM99.0861 14.0634L95.1755 16.0634L95.9276 11.9206L92.7689 8.99202L97.2059 8.3491L99.1612 4.56336L101.116 8.3491L105.553 8.99202L102.395 11.9206L103.147 16.0634L99.0861 14.0634ZM126.911 8.06338L120.669 7.20626L117.887 1.84912L115.104 7.20626L108.862 8.06338L113.375 12.2063L112.322 18.1349L117.887 15.3491L123.452 18.1349L122.399 12.2063L126.911 8.06338ZM117.887 14.0634L113.976 16.0634L114.728 11.9206L111.57 8.99202L116.007 8.3491L117.962 4.56336L119.917 8.3491L124.354 8.99202L121.196 11.9206L121.948 16.0634L117.887 14.0634ZM145.712 8.06338L139.47 7.20626L136.687 1.84912L133.905 7.20626L127.663 8.06338L132.175 12.2063L131.122 18.1349L136.687 15.3491L142.252 18.1349L141.2 12.2063L145.712 8.06338ZM136.687 14.0634L132.777 16.0634L133.529 11.9206L130.37 8.99202L134.807 8.3491L136.763 4.56336L138.718 8.3491L143.155 8.99202L139.996 11.9206L140.748 16.0634L136.687 14.0634Z" fill="#FF492C"/>
</g>
<path d="M196.947 7.64342H188.948L186.477 0L183.999 7.64342L176 7.63567L182.478 12.3643L179.999 20L186.477 15.2791L192.947 20L190.477 12.3643L196.947 7.64342Z" fill="#00B67A"/>
<path d="M191.03 14.0905L190.474 12.3618L186.475 15.2765L191.03 14.0905Z" fill="#005128"/>
<path d="M203.695 3.03857H212.55V4.69749H209.068V14.023H207.154V4.69749H203.687V3.03857H203.695ZM212.172 6.06958H213.809V7.60447H213.84C213.894 7.3874 213.994 7.17811 214.141 6.97655C214.288 6.77501 214.465 6.5812 214.674 6.41842C214.882 6.24788 215.114 6.11609 215.369 6.00756C215.624 5.90679 215.886 5.85253 216.148 5.85253C216.349 5.85253 216.496 5.86028 216.573 5.86804C216.65 5.87579 216.727 5.89129 216.812 5.89904V7.58896C216.689 7.56571 216.565 7.55021 216.434 7.5347C216.303 7.5192 216.179 7.51145 216.056 7.51145C215.762 7.51145 215.484 7.57346 215.222 7.68973C214.959 7.80601 214.736 7.98431 214.542 8.20911C214.35 8.44168 214.195 8.72075 214.079 9.06182C213.963 9.40291 213.909 9.79051 213.909 10.2324V14.0152H212.164V6.06958H212.172ZM224.834 14.023H223.12V12.9145H223.09C222.873 13.3176 222.557 13.6354 222.132 13.8757C221.708 14.116 221.275 14.24 220.835 14.24C219.793 14.24 219.036 13.9842 218.573 13.4649C218.11 12.9455 217.878 12.1626 217.878 11.1161V6.06958H219.623V10.9456C219.623 11.6432 219.754 12.1394 220.024 12.4262C220.287 12.713 220.665 12.8603 221.144 12.8603C221.514 12.8603 221.816 12.806 222.063 12.6897C222.31 12.5734 222.51 12.4262 222.657 12.2324C222.812 12.0463 222.92 11.8138 222.989 11.5502C223.059 11.2866 223.09 10.9998 223.09 10.6897V6.07733H224.834V14.023ZM227.807 11.4727C227.861 11.9843 228.054 12.3409 228.386 12.5502C228.726 12.7517 229.127 12.8603 229.598 12.8603C229.76 12.8603 229.946 12.8448 230.154 12.8215C230.363 12.7982 230.563 12.744 230.741 12.6742C230.926 12.6045 231.073 12.4959 231.196 12.3564C231.312 12.2169 231.366 12.0386 231.358 11.8138C231.351 11.589 231.266 11.4029 231.111 11.2634C230.957 11.1161 230.764 11.0076 230.525 10.9145C230.285 10.8293 230.015 10.7517 229.706 10.6897C229.397 10.6277 229.089 10.558 228.772 10.4882C228.448 10.4184 228.131 10.3254 227.83 10.2246C227.529 10.1238 227.259 9.98432 227.019 9.80601C226.78 9.63548 226.587 9.41066 226.448 9.13936C226.301 8.86803 226.232 8.5347 226.232 8.13159C226.232 7.69749 226.34 7.3409 226.548 7.04632C226.757 6.75175 227.027 6.51919 227.344 6.3409C227.668 6.1626 228.023 6.03857 228.417 5.96106C228.811 5.89129 229.189 5.85253 229.544 5.85253C229.953 5.85253 230.347 5.89904 230.718 5.98431C231.088 6.06958 231.428 6.20911 231.729 6.41067C232.03 6.60446 232.277 6.86028 232.478 7.17036C232.679 7.48042 232.802 7.86027 232.856 8.30213H231.034C230.949 7.88353 230.764 7.59672 230.463 7.45717C230.162 7.30989 229.814 7.24012 229.428 7.24012C229.305 7.24012 229.158 7.24788 228.988 7.27113C228.818 7.29439 228.664 7.33314 228.51 7.3874C228.363 7.44167 228.239 7.52695 228.131 7.63547C228.031 7.744 227.977 7.88353 227.977 8.06183C227.977 8.27888 228.054 8.44943 228.201 8.58121C228.347 8.713 228.54 8.82152 228.78 8.91454C229.019 8.99981 229.289 9.07733 229.598 9.13936C229.907 9.20137 230.224 9.27113 230.548 9.3409C230.864 9.41066 231.173 9.50368 231.482 9.60447C231.791 9.70524 232.061 9.84477 232.3 10.0231C232.54 10.2014 232.733 10.4184 232.879 10.682C233.026 10.9456 233.103 11.2789 233.103 11.6665C233.103 12.1394 232.995 12.5347 232.779 12.868C232.563 13.1936 232.285 13.4649 231.945 13.6664C231.606 13.868 231.22 14.023 230.803 14.116C230.386 14.209 229.969 14.2555 229.56 14.2555C229.058 14.2555 228.595 14.2013 228.17 14.085C227.745 13.9687 227.375 13.7982 227.066 13.5734C226.757 13.3409 226.51 13.054 226.332 12.713C226.155 12.3719 226.062 11.9611 226.047 11.4882H227.807V11.4727ZM233.567 6.06958H234.887V3.68198H236.632V6.06958H238.207V7.37965H236.632V11.6277C236.632 11.8138 236.64 11.9688 236.655 12.1083C236.671 12.2401 236.709 12.3564 236.763 12.4494C236.817 12.5424 236.902 12.6122 237.018 12.6587C237.134 12.7052 237.28 12.7285 237.481 12.7285C237.605 12.7285 237.728 12.7285 237.852 12.7207C237.975 12.713 238.099 12.6975 238.222 12.6665V14.023C238.029 14.0463 237.836 14.0618 237.659 14.085C237.473 14.1083 237.288 14.116 237.095 14.116C236.632 14.116 236.261 14.0695 235.983 13.9842C235.705 13.899 235.481 13.7672 235.327 13.5967C235.165 13.4261 235.065 13.2168 235.003 12.961C234.949 12.7052 234.91 12.4107 234.902 12.0851V7.39516H233.582V6.06958H233.567ZM239.442 6.06958H241.095V7.1471H241.125C241.372 6.68199 241.712 6.3564 242.152 6.15485C242.592 5.9533 243.063 5.85253 243.581 5.85253C244.206 5.85253 244.747 5.96106 245.21 6.18585C245.673 6.40291 246.059 6.70525 246.368 7.09284C246.677 7.48042 246.901 7.93005 247.055 8.44168C247.209 8.9533 247.287 9.50368 247.287 10.0851C247.287 10.62 247.217 11.1393 247.078 11.6355C246.939 12.1394 246.731 12.5812 246.453 12.9688C246.175 13.3564 245.82 13.6587 245.387 13.8912C244.955 14.1238 244.453 14.24 243.866 14.24C243.612 14.24 243.357 14.2168 243.102 14.1703C242.847 14.1238 242.6 14.0463 242.368 13.9455C242.137 13.8447 241.913 13.7129 241.72 13.5501C241.519 13.3874 241.357 13.2013 241.218 12.992H241.187V16.961H239.442V6.06958ZM245.542 10.0541C245.542 9.69749 245.495 9.34865 245.403 9.00756C245.31 8.66647 245.171 8.37191 244.986 8.10834C244.8 7.84477 244.569 7.63547 244.299 7.48042C244.021 7.32539 243.704 7.24012 243.349 7.24012C242.616 7.24012 242.06 7.49594 241.689 8.00757C241.318 8.51919 241.133 9.20137 241.133 10.0541C241.133 10.4572 241.179 10.8293 241.28 11.1704C241.38 11.5114 241.519 11.806 241.72 12.0541C241.913 12.3021 242.145 12.4959 242.415 12.6355C242.685 12.7827 243.002 12.8525 243.357 12.8525C243.758 12.8525 244.09 12.7672 244.368 12.6045C244.646 12.4417 244.87 12.2246 245.048 11.9688C245.225 11.7052 245.356 11.4107 245.434 11.0773C245.503 10.744 245.542 10.4029 245.542 10.0541ZM248.622 3.03857H250.367V4.69749H248.622V3.03857ZM248.622 6.06958H250.367V14.023H248.622V6.06958ZM251.927 3.03857H253.672V14.023H251.927V3.03857ZM259.022 14.24C258.389 14.24 257.826 14.1315 257.331 13.9222C256.837 13.7129 256.42 13.4184 256.073 13.054C255.733 12.682 255.471 12.2401 255.293 11.7285C255.116 11.2169 255.023 10.651 255.023 10.0386C255.023 9.43392 255.116 8.87578 255.293 8.36416C255.471 7.85252 255.733 7.41066 256.073 7.03857C256.413 6.66649 256.837 6.37966 257.331 6.17035C257.826 5.96106 258.389 5.85253 259.022 5.85253C259.655 5.85253 260.219 5.96106 260.713 6.17035C261.207 6.37966 261.624 6.67424 261.972 7.03857C262.311 7.41066 262.574 7.85252 262.752 8.36416C262.929 8.87578 263.022 9.43392 263.022 10.0386C263.022 10.651 262.929 11.2169 262.752 11.7285C262.574 12.2401 262.311 12.682 261.972 13.054C261.632 13.4261 261.207 13.7129 260.713 13.9222C260.219 14.1315 259.655 14.24 259.022 14.24ZM259.022 12.8525C259.408 12.8525 259.748 12.7672 260.034 12.6045C260.319 12.4417 260.551 12.2246 260.736 11.9611C260.922 11.6975 261.053 11.3952 261.146 11.0618C261.231 10.7285 261.277 10.3874 261.277 10.0386C261.277 9.69749 261.231 9.36415 261.146 9.02307C261.061 8.68198 260.922 8.38741 260.736 8.12384C260.551 7.86027 260.319 7.65098 260.034 7.48819C259.748 7.32539 259.408 7.24012 259.022 7.24012C258.636 7.24012 258.297 7.32539 258.011 7.48819C257.725 7.65098 257.494 7.86802 257.308 8.12384C257.123 8.38741 256.992 8.68198 256.899 9.02307C256.814 9.36415 256.768 9.69749 256.768 10.0386C256.768 10.3874 256.814 10.7285 256.899 11.0618C256.984 11.3952 257.123 11.6975 257.308 11.9611C257.494 12.2246 257.725 12.4417 258.011 12.6045C258.297 12.775 258.636 12.8525 259.022 12.8525ZM263.531 6.06958H264.852V3.68198H266.597V6.06958H268.172V7.37965H266.597V11.6277C266.597 11.8138 266.604 11.9688 266.62 12.1083C266.635 12.2401 266.674 12.3564 266.728 12.4494C266.782 12.5424 266.867 12.6122 266.983 12.6587C267.098 12.7052 267.245 12.7285 267.446 12.7285C267.569 12.7285 267.693 12.7285 267.816 12.7207C267.94 12.713 268.063 12.6975 268.187 12.6665V14.023C267.994 14.0463 267.801 14.0618 267.623 14.085C267.438 14.1083 267.253 14.116 267.06 14.116C266.597 14.116 266.226 14.0695 265.948 13.9842C265.67 13.899 265.446 13.7672 265.292 13.5967C265.13 13.4261 265.029 13.2168 264.967 12.961C264.913 12.7052 264.875 12.4107 264.867 12.0851V7.39516H263.547V6.06958H263.531Z" fill="#1B1B21"/>
<mask id="mask2_721_163" style="mask-type:luminance" maskUnits="userSpaceOnUse" x="274" y="0" width="104" height="20">
<path d="M377.389 0.869629H274.927V19.1301H377.389V0.869629Z" fill="white"/>
</mask>
<g mask="url(#mask2_721_163)">
<path d="M294.139 0.882812H274.927V19.1431H294.139V0.882812Z" fill="#00B67A"/>
<path d="M314.953 0.883301H295.742V19.1436H314.953V0.883301Z" fill="#00B67A"/>
<path d="M335.764 0.883301H316.552V19.1436H335.764V0.883301Z" fill="#00B67A"/>
<path d="M356.578 0.883301H337.366V19.1436H356.578V0.883301Z" fill="#00B67A"/>
<path d="M377.39 0.883301H367.784V19.1436H377.39V0.883301Z" fill="#DCDCE6"/>
<path d="M373.237 0.883301H358.006V19.1436H373.237V0.883301Z" fill="#00B67A"/>
<path d="M284.531 13.1891L287.453 12.4854L288.674 16.0615L284.531 13.1891ZM291.255 8.56699H286.112L284.531 3.96387L282.95 8.56699H277.807L281.97 11.4203L280.389 16.0234L284.551 13.1701L287.113 11.4203L291.255 8.56699Z" fill="white"/>
<path d="M305.345 13.1891L308.267 12.4854L309.488 16.0615L305.345 13.1891ZM312.07 8.56699H306.926L305.345 3.96387L303.765 8.56699H298.621L302.784 11.4203L301.203 16.0234L305.365 13.1701L307.927 11.4203L312.07 8.56699Z" fill="white"/>
<path d="M325.98 13.2253L328.902 12.5216L330.122 16.0976L325.98 13.2253ZM332.704 8.60312H327.561L325.98 4L324.399 8.60312H319.256L323.418 11.4564L321.837 16.0595L326 13.2062L328.561 11.4564L332.704 8.60312Z" fill="white"/>
<path d="M346.97 13.1891L349.892 12.4854L351.113 16.0615L346.97 13.1891ZM353.694 8.56699H348.551L346.97 3.96387L345.389 8.56699H340.246L344.409 11.4203L342.828 16.0234L346.99 13.1701L349.552 11.4203L353.694 8.56699Z" fill="white"/>
<path d="M367.781 13.1891L370.703 12.4854L371.924 16.0615L367.781 13.1891ZM374.505 8.56699H369.362L367.781 3.96387L366.2 8.56699H361.057L365.22 11.4203L363.639 16.0234L367.801 13.1701L370.363 11.4203L374.505 8.56699Z" fill="white"/>
</g>
</svg>
