<svg width="153" height="48" viewBox="0 0 153 48" fill="none" xmlns="http://www.w3.org/2000/svg">
    <path
        d="M56.1373 31.1422V15.3168H62.0719C63.2876 15.3168 64.3076 15.5434 65.1319 15.9968C65.9613 16.4501 66.5872 17.0734 67.0096 17.8668C67.4372 18.6549 67.651 19.5513 67.651 20.5558C67.651 21.5707 67.4372 22.4722 67.0096 23.2604C66.582 24.0486 65.951 24.6693 65.1164 25.1227C64.2819 25.5708 63.2541 25.7949 62.0332 25.7949H58.1001V23.4381H61.6469C62.3578 23.4381 62.9399 23.3145 63.3932 23.0672C63.8466 22.8199 64.1814 22.4799 64.3978 22.0472C64.6193 21.6145 64.7301 21.1174 64.7301 20.5558C64.7301 19.9943 64.6193 19.4998 64.3978 19.0722C64.1814 18.6446 63.844 18.3124 63.3855 18.0754C62.9322 17.8333 62.3475 17.7122 61.6314 17.7122H59.0041V31.1422H56.1373ZM70.0174 31.1422V19.2731H72.7297V21.2513H72.8533C73.0697 20.5662 73.4406 20.0381 73.9661 19.6672C74.4967 19.2912 75.102 19.1031 75.782 19.1031C75.9365 19.1031 76.1091 19.1108 76.2997 19.1263C76.4955 19.1366 76.6577 19.1546 76.7865 19.1804V21.7536C76.668 21.7124 76.48 21.6763 76.2224 21.6454C75.97 21.6093 75.7253 21.5913 75.4883 21.5913C74.9783 21.5913 74.5199 21.7021 74.1129 21.9236C73.7111 22.1399 73.3943 22.4413 73.1624 22.8277C72.9306 23.214 72.8147 23.6596 72.8147 24.1645V31.1422H70.0174ZM78.6449 31.1422V19.2731H81.4422V31.1422H78.6449ZM80.0513 17.5886C79.6083 17.5886 79.2271 17.4418 78.9077 17.1481C78.5883 16.8493 78.4286 16.4913 78.4286 16.074C78.4286 15.6516 78.5883 15.2936 78.9077 14.9999C79.2271 14.7012 79.6083 14.5518 80.0513 14.5518C80.4995 14.5518 80.8807 14.7012 81.1949 14.9999C81.5143 15.2936 81.674 15.6516 81.674 16.074C81.674 16.4913 81.5143 16.8493 81.1949 17.1481C80.8807 17.4418 80.4995 17.5886 80.0513 17.5886ZM84.3187 31.1422V19.2731H86.9923V21.2899H87.1314C87.3787 20.6099 87.7882 20.0793 88.3601 19.6981C88.9319 19.3118 89.6144 19.1186 90.4078 19.1186C91.2114 19.1186 91.8888 19.3143 92.4401 19.7058C92.9964 20.0922 93.3879 20.6202 93.6146 21.2899H93.7382C94.001 20.6305 94.444 20.1051 95.0673 19.7136C95.6958 19.3169 96.4402 19.1186 97.3005 19.1186C98.3926 19.1186 99.2838 19.4637 99.9741 20.154C100.664 20.8443 101.01 21.8515 101.01 23.1754V31.1422H98.2046V23.6081C98.2046 22.8715 98.0088 22.3331 97.6173 21.9931C97.2258 21.648 96.7467 21.4754 96.1801 21.4754C95.5052 21.4754 94.9772 21.6866 94.596 22.109C94.2199 22.5263 94.0319 23.0698 94.0319 23.7395V31.1422H91.2887V23.4922C91.2887 22.8792 91.1032 22.3898 90.7323 22.024C90.3666 21.6583 89.8875 21.4754 89.2951 21.4754C88.8932 21.4754 88.5275 21.5784 88.1978 21.7845C87.8681 21.9854 87.6054 22.2713 87.4096 22.6422C87.2138 23.008 87.116 23.4355 87.116 23.9249V31.1422H84.3187ZM109.102 31.374C107.912 31.374 106.884 31.1268 106.019 30.6322C105.158 30.1325 104.497 29.4268 104.033 28.5149C103.569 27.598 103.337 26.5187 103.337 25.2772C103.337 24.0563 103.569 22.9848 104.033 22.0627C104.502 21.1354 105.156 20.4142 105.996 19.899C106.835 19.3787 107.822 19.1186 108.955 19.1186C109.687 19.1186 110.377 19.2371 111.026 19.474C111.68 19.7058 112.257 20.0665 112.757 20.5558C113.262 21.0452 113.658 21.6686 113.947 22.4258C114.235 23.178 114.38 24.0743 114.38 25.1149V25.9727H104.651V24.0872H111.698C111.693 23.5515 111.577 23.0749 111.351 22.6577C111.124 22.2352 110.807 21.903 110.4 21.6608C109.998 21.4187 109.53 21.2977 108.994 21.2977C108.422 21.2977 107.92 21.4368 107.487 21.7149C107.054 21.988 106.717 22.3486 106.475 22.7968C106.238 23.2398 106.117 23.7266 106.112 24.2572V25.9031C106.112 26.5934 106.238 27.1858 106.49 27.6804C106.743 28.1698 107.095 28.5458 107.549 28.8086C108.002 29.0662 108.533 29.1949 109.141 29.1949C109.548 29.1949 109.916 29.1383 110.246 29.0249C110.575 28.9065 110.861 28.7339 111.103 28.5072C111.345 28.2805 111.528 27.9998 111.652 27.6649L114.264 27.9586C114.099 28.6489 113.785 29.2516 113.321 29.7668C112.863 30.2768 112.275 30.6734 111.559 30.9568C110.843 31.2349 110.024 31.374 109.102 31.374ZM126.127 22.4104L123.577 22.6886C123.505 22.431 123.379 22.1889 123.198 21.9622C123.023 21.7355 122.786 21.5527 122.488 21.4136C122.189 21.2745 121.823 21.2049 121.39 21.2049C120.808 21.2049 120.319 21.3312 119.922 21.5836C119.531 21.836 119.337 22.1631 119.343 22.5649C119.337 22.9101 119.464 23.1908 119.721 23.4072C119.984 23.6236 120.417 23.8013 121.019 23.9404L123.044 24.3731C124.167 24.6152 125.001 24.999 125.548 25.5245C126.099 26.0499 126.377 26.7377 126.382 27.5877C126.377 28.3346 126.158 28.994 125.725 29.5658C125.298 30.1325 124.703 30.5755 123.94 30.8949C123.178 31.2143 122.302 31.374 121.313 31.374C119.86 31.374 118.691 31.0701 117.805 30.4622C116.919 29.8492 116.391 28.9966 116.221 27.9045L118.948 27.6418C119.072 28.1775 119.335 28.5819 119.737 28.8549C120.138 29.128 120.661 29.2645 121.305 29.2645C121.97 29.2645 122.503 29.128 122.905 28.8549C123.312 28.5819 123.515 28.2445 123.515 27.8427C123.515 27.5027 123.384 27.2219 123.121 27.0004C122.864 26.7789 122.462 26.6089 121.916 26.4904L119.891 26.0654C118.753 25.8284 117.91 25.4292 117.364 24.8677C116.818 24.301 116.548 23.5849 116.553 22.7195C116.548 21.988 116.746 21.3543 117.148 20.8186C117.555 20.2777 118.119 19.8604 118.84 19.5668C119.567 19.268 120.404 19.1186 121.352 19.1186C122.743 19.1186 123.837 19.4148 124.636 20.0072C125.439 20.5996 125.936 21.4007 126.127 22.4104ZM133.866 31.374C132.707 31.374 131.702 31.119 130.852 30.609C130.002 30.099 129.343 29.3855 128.874 28.4686C128.411 27.5516 128.179 26.4801 128.179 25.254C128.179 24.028 128.411 22.9539 128.874 22.0318C129.343 21.1096 130.002 20.3936 130.852 19.8836C131.702 19.3736 132.707 19.1186 133.866 19.1186C135.025 19.1186 136.03 19.3736 136.88 19.8836C137.73 20.3936 138.386 21.1096 138.85 22.0318C139.319 22.9539 139.553 24.028 139.553 25.254C139.553 26.4801 139.319 27.5516 138.85 28.4686C138.386 29.3855 137.73 30.099 136.88 30.609C136.03 31.119 135.025 31.374 133.866 31.374ZM133.881 29.1331C134.51 29.1331 135.035 28.9605 135.458 28.6154C135.88 28.2651 136.194 27.7963 136.401 27.209C136.612 26.6218 136.717 25.9675 136.717 25.2463C136.717 24.5199 136.612 23.8631 136.401 23.2758C136.194 22.6834 135.88 22.2121 135.458 21.8618C135.035 21.5115 134.51 21.3363 133.881 21.3363C133.237 21.3363 132.702 21.5115 132.274 21.8618C131.852 22.2121 131.535 22.6834 131.324 23.2758C131.118 23.8631 131.015 24.5199 131.015 25.2463C131.015 25.9675 131.118 26.6218 131.324 27.209C131.535 27.7963 131.852 28.2651 132.274 28.6154C132.702 28.9605 133.237 29.1331 133.881 29.1331ZM143.768 19.2731L146.164 23.6545L148.598 19.2731H151.558L147.98 25.2077L151.619 31.1422H148.675L146.164 26.869L143.676 31.1422H140.708L144.325 25.2077L140.801 19.2731H143.768Z"
        fill="url(#paint0_linear_1174_26)" />
    <path
        d="M11.8805 15.3959C12.5667 9.32058 15.299 4.48543 20.2676 1.01196C22.2028 -0.341625 22.7337 -0.337575 24.6696 1.02573C29.6304 4.52026 32.3203 9.37728 32.9739 15.4907C36.3725 17.9484 38.954 21.1189 40.2014 25.2088C40.7824 27.1132 40.9522 29.1537 41.2367 31.1432C41.4344 32.5227 40.7458 33.421 39.5446 34.0334C34.2691 36.726 28.9027 36.9893 23.4247 34.7357C23.1051 34.6045 22.7831 34.4789 22.7361 34.4603C20.3649 35.0265 18.2727 35.6648 16.135 36.0075C12.0519 36.6604 8.25639 35.6187 4.69127 33.5976C3.691 33.0306 3.46863 32.0925 3.50131 31.0103C3.67187 25.289 5.91153 20.5688 10.1278 16.8021C10.6499 16.3356 11.2198 15.9249 11.8821 15.3975L11.8805 15.3959ZM17.0429 12.854C20.702 12.0569 24.3604 11.8908 28.1646 13.1027C27.1046 9.53767 25.281 6.87749 22.4619 4.83699C19.7217 6.88964 17.7203 9.3627 16.9169 12.7179C16.885 12.8086 16.854 12.8994 16.7814 13.1043C16.9361 12.9561 16.9895 12.905 17.0429 12.854ZM28.6373 18.0545C24.4624 16.1906 20.3896 16.1063 16.2387 18.0342C16.6531 22.7746 18.7142 26.3566 22.3678 29.1424C26.1107 26.3696 28.1128 22.7689 28.6381 18.0537L28.6373 18.0545ZM32.6551 20.9552C31.6166 24.9917 29.7866 28.3866 26.7475 31.2679C30.3349 32.0942 33.5685 31.9735 36.8363 30.4344C36.6426 26.7819 35.2263 23.7394 32.6551 20.9552ZM12.1953 20.8467C9.55236 23.6729 8.10894 26.6895 7.92403 30.3274C11.1464 31.8933 14.3553 32.0075 17.9642 31.2452C15.0184 28.2788 13.1366 24.9739 12.1953 20.8467Z"
        fill="url(#paint1_linear_1174_26)" />
    <path
        d="M5.11049 6.46509C7.8443 6.49506 10.127 8.84338 10.1127 11.6121C10.0983 14.359 7.76858 16.7251 5.06585 16.7381C2.289 16.751 -0.0471004 14.3322 0.000721459 11.493C0.0477463 8.72025 2.3695 6.43593 5.11049 6.4659V6.46509Z"
        fill="#038FF7" />
    <path
        d="M22.3694 47.1853C19.5559 47.1926 17.3202 44.9836 17.2963 42.1736C17.2716 39.3157 19.6014 36.9059 22.3686 36.9237C25.0347 36.9415 27.4075 39.3652 27.425 42.091C27.4425 44.8273 25.1096 47.178 22.3694 47.1853Z"
        fill="#4B57C1" />
    <path
        d="M34.885 11.5902C34.9209 8.734 37.1964 6.47074 39.9533 6.55012C42.6808 6.62789 44.8639 8.99564 44.8256 11.8348C44.7865 14.717 42.6019 16.8466 39.7254 16.8061C36.9127 16.7664 34.8476 14.5412 34.885 11.5902Z"
        fill="#AA70E6" />
    <defs>
        <linearGradient id="paint0_linear_1174_26" x1="176.998" y1="31.2233" x2="176.964"
            y2="5.39351" gradientUnits="userSpaceOnUse">
            <stop stop-color="#352CAE" />
            <stop offset="1" stop-color="#876BCC" />
        </linearGradient>
        <linearGradient id="paint1_linear_1174_26" x1="50.6831" y1="32.5952" x2="50.3581"
            y2="-16.6928" gradientUnits="userSpaceOnUse">
            <stop stop-color="#352CAE" />
            <stop offset="1" stop-color="#876BCC" />
        </linearGradient>
    </defs>
</svg>
    