<svg width="23" height="22" viewBox="0 0 23 22" fill="none" xmlns="http://www.w3.org/2000/svg">
<g id="Group 114471">
<g id="Group 114430">
<g id="SVGRepo_iconCarrier">
<path id="Vector" d="M12.5789 21H5.2105C3.22565 21 2.23322 21 1.61662 20.3834C1 19.7667 1 18.7743 1 16.7895C1 14.8046 1 13.8122 1.61662 13.1956C2.23322 12.579 3.22565 12.579 5.2105 12.579H17.842C19.8268 12.579 20.8192 12.579 21.4359 13.1956C22.0525 13.8122 22.0525 14.8046 22.0525 16.7895C22.0525 18.7743 22.0525 19.7667 21.4359 20.3834C20.8192 21 19.8268 21 17.842 21H16.7894" stroke="white" stroke-width="1.00155" stroke-linecap="round"/>
<path id="Vector_2" d="M10.4736 1H17.842C19.8268 1 20.8192 1 21.4359 1.61662C22.0525 2.23322 22.0525 3.22565 22.0525 5.2105C22.0525 7.19535 22.0525 8.18778 21.4359 8.80438C20.8192 9.421 19.8268 9.421 17.842 9.421H5.2105C3.22565 9.421 2.23322 9.421 1.61662 8.80438C1 8.18778 1 7.19535 1 5.2105C1 3.22565 1 2.23322 1.61662 1.61662C2.23322 1 3.22565 1 5.2105 1H6.26312" stroke="white" stroke-width="1.00155" stroke-linecap="round"/>
<path id="Vector_3" d="M10.4736 5.21057H17.842" stroke="white" stroke-width="1.00155" stroke-linecap="round"/>
<path id="Vector_4" d="M5.21094 5.21057H7.31619" stroke="white" stroke-width="1.00155" stroke-linecap="round"/>
<path id="Vector_5" d="M10.4736 16.7894H17.842" stroke="white" stroke-width="1.00155" stroke-linecap="round"/>
<path id="Vector_6" d="M5.21094 16.7894H7.31619" stroke="white" stroke-width="1.00155" stroke-linecap="round"/>
</g>
</g>
</g>
</svg>
