<svg width="40" height="40" viewBox="0 0 40 40" fill="none" xmlns="http://www.w3.org/2000/svg">
<g id="Group 114724">
<path id="Rectangle 79" d="M0 5C0 2.23858 2.23858 0 5 0H35C37.7614 0 40 2.23858 40 5V35C40 37.7614 37.7614 40 35 40H5C2.23858 40 0 37.7614 0 35V5Z" fill="#AA70E6"/>
<g id="Group 114723">
<g id="SVGRepo_iconCarrier">
<path id="Vector" d="M9.4872 18.7101C9.4872 18.7101 20.218 14.3196 23.9396 12.7737C25.3662 12.1554 30.2044 10.1765 30.2044 10.1765C30.2044 10.1765 32.4373 9.31095 32.2513 11.4132C32.1891 12.279 31.6929 15.309 31.1967 18.5863C30.4524 23.2242 29.646 28.2947 29.646 28.2947C29.646 28.2947 29.5221 29.717 28.4677 29.9644C27.4131 30.2117 25.6764 29.0986 25.3662 28.8513C25.1182 28.6657 20.7142 25.8831 19.1016 24.5227C18.6674 24.1518 18.1711 23.4096 19.1636 22.5439C21.3965 20.5034 24.0637 17.968 25.6764 16.3603C26.4206 15.6182 27.165 13.8867 24.0637 15.9891C19.6598 19.0191 15.3178 21.8637 15.3178 21.8637C15.3178 21.8637 14.3256 22.4821 12.4647 21.9255C10.6039 21.369 8.43294 20.627 8.43294 20.627C8.43294 20.627 6.94441 19.6993 9.48752 18.7101H9.4872Z" stroke="white"/>
</g>
</g>
</g>
</svg>
